<?xml version="1.0" encoding="utf-8"?>
<!-- Generator: Adobe Illustrator 21.1.0, SVG Export Plug-In . SVG Version: 6.00 Build 0)  -->
<svg version="1.1" id="_x31_" xmlns="http://www.w3.org/2000/svg" xmlns:xlink="http://www.w3.org/1999/xlink" x="0px" y="0px"
	 viewBox="0 0 55 48.3" style="enable-background:new 0 0 55 48.3;" xml:space="preserve">
<style type="text/css">
	.st0{fill:#231815;}
	.st0{fill:#FFF;}
</style>
<g>
	<g>
		<path class="st0" d="M25.7,6.7l1.8-3.2l1.8,3.2h3.4l-3.2-5.6c-0.4-0.7-1.2-1.2-2-1.2c-0.8,0-1.6,0.5-2,1.2l-3.2,5.6H25.7z"/>
		<path class="st0" d="M54.7,44.7L37.8,15.4v5.9l13.9,24H3.4l13.9-24v-5.9L0.3,44.7c-0.4,0.7-0.4,1.6,0,2.4c0.4,0.7,1.2,1.2,2,1.2
			h50.3c0.8,0,1.6-0.5,2-1.2C55.1,46.4,55.1,45.4,54.7,44.7z"/>
	</g>
	<path class="st0" d="M37.1,10V8.7h-8.2V7.8H26v0.9h-8.2V10H26v0.8h-7.3v5.7h2.6l-3.5,4.1h3.4l3.5-4.1H26v4.1h2.9v-4.1h1.3l3.5,4.1
		H37l-3.5-4.1h2.6v-5.7h-7.3V10H37.1z M21.6,12.3H26V13h-4.4V12.3z M21.6,15v-0.6H26V15H21.6z M28.9,14.3h4.4V15h-4.4V14.3z
		 M33.3,12.3V13h-4.4v-0.6H33.3z"/>
	<g>
		<path class="st0" d="M37.5,30.7h-1.3v-6.4h-3.7v-1.4h-3v1.4h-3.7v6.4h-1.3v1.4h3.7l-3.1,3.7h3.4l2.5-3l2.5,3h3.4l-3.1-3.7h3.7
			V30.7z M33.4,25.8v4.9h-0.9v-4.9H33.4z M28.6,25.8h0.9v4.9h-0.9V25.8z"/>
		<path class="st0" d="M18,34.8h6.2V23.9H18V34.8z M20.5,33.4v-4h1.3v4H20.5z M21.7,25.3v2.7h-1.3v-2.7H21.7z"/>
	</g>
</g>
</svg>
