<?xml version="1.0" encoding="utf-8"?>
<!-- Generator: Adobe Illustrator 20.0.0, SVG Export Plug-In . SVG Version: 6.00 Build 0)  -->
<svg version="1.1" id="レイヤー_1" xmlns="http://www.w3.org/2000/svg" xmlns:xlink="http://www.w3.org/1999/xlink" x="0px"
	 y="0px" viewBox="0 0 364 80" style="enable-background:new 0 0 364 80;" xml:space="preserve">
<style type="text/css">
	.st0{fill-rule:evenodd;clip-rule:evenodd;fill:#5A3C1B;}
	.st1{fill-rule:evenodd;clip-rule:evenodd;fill:#BE2F20;}
	.st2{fill-rule:evenodd;clip-rule:evenodd;fill:url(#SVGID_1_);}
	.st3{fill-rule:evenodd;clip-rule:evenodd;fill:#DDC73A;}
	.st4{fill-rule:evenodd;clip-rule:evenodd;fill:url(#SVGID_2_);}
	.st5{fill:#260606;}
	.st6{fill:#BE2F20;}
</style>
<g>
	<g>
		<g>
			<path class="st0" d="M31.4,42.5c11.2-2.7,21-6,25.6-5.9c5,0.1,18.2,15.7,18.1,16.9l0.2,16c-6.5,1.6-29.1,7.2-39.4,9.6
				c-3,0.7-4.2,0.9-5.6,0.4L1.7,66c-1.8-4.6-2.5-12.9,0.2-14.2C5.8,50.1,18.8,45.6,31.4,42.5z"/>
			<path class="st0" d="M76.1,5.9c-2-2.6-6.5-4.4-9.9-4.8c-0.7-0.1-1.6-0.1-2.5-0.1c-4.1,0-10.1,0.9-16.3,2.4
				c-1.2,0.3-2.4,0.6-3.4,0.8c-6.5,1.6-10.8,2.6-14.1,5.5c-0.2,0.2-0.4,0.3-0.6,0.5c-2.6,2.2-6.6,5.5-6.2,18
				c0.3,7.2,0.3,20.2,0.3,30.1c-3.2-1.1-6.4-2.3-9.3-3.5c-4.6-1.8-8.3-3.3-10.5-3.3c-0.7,0-1.3,0.2-1.7,0.5C-1.2,54,0.4,61,1.6,62.9
				C3,65.1,22.8,74,28.8,76.7c0.8,0.3,1.9,0.5,3.3,0.5c4.3,0,11-1.6,18.2-3.3c2.5-0.6,5-1.2,7.5-1.8l2.2-0.5
				c9.6-2.1,17.1-3.7,17.1-9.7l0-1.1l0,0l0-0.7c0-1.7,0.1-5.5,0.1-9.7c0-4.7,0-9.8,0-12.2L77.1,9.6C77.1,8.3,77,7,76.1,5.9z"/>
			<g>
				<g>
					<path class="st1" d="M76.3,38.2l0-28.7c0-4.5-6.1-7-10.3-7.5c-3.9-0.5-11,0.5-18.5,2.3C39,6.4,34.1,7.2,30.4,10.4
						c-2.5,2.2-6.9,4.8-6.4,17.7c0.3,7.6,0.3,21.5,0.3,31.4c-10-3.1-19.6-8.4-21.8-6.9c-2.5,1.7-1.3,8-0.1,9.8
						c1.4,2.1,26.8,13.4,26.8,13.4c4,1.7,16.8-2.1,28.4-4.6c10.5-2.3,18.6-3.7,18.6-9.3l0-1.8l0,0C76.2,56.5,76.3,42.8,76.3,38.2z"
						/>
				</g>
			</g>
			
				<linearGradient id="SVGID_1_" gradientUnits="userSpaceOnUse" x1="36.7597" y1="54.8402" x2="38.1361" y2="15.4255" gradientTransform="matrix(1 -2.783192e-03 2.783192e-03 1 11.3557 -13.291)">
				<stop  offset="0.5399" style="stop-color:#BE2F20"/>
				<stop  offset="1" style="stop-color:#D49E7B"/>
			</linearGradient>
			<path class="st2" d="M30.1,40.9c-0.1,0-0.1,0-0.2,0c-1.6-0.4-4.6-2.8-4.6-6.6l0,0c0,0-0.1-2.5-0.2-6.2
				c-0.4-11.7,3.3-14.8,5.8-16.8c0.2-0.2,0.4-0.3,0.5-0.5c3.1-2.7,7-3.6,13.3-5.1c1-0.2,2.1-0.5,3.3-0.8C54,3.4,59.6,2.5,63.5,2.5
				c0.9,0,1.7,0,2.4,0.1c3.4,0.5,5.6,1.5,7,2.6c1.2,0.9-1.7,0.9-5.1,1.2c-5.1,0.5-9.6,1-15.7,2.5c-1.2,0.3-2.2,0.5-3.3,0.8
				c-6.1,1.5-9.8,2.3-12.6,4.8c-0.2,0.2-0.4,0.3-0.6,0.5l-0.3,0.3c-2.3,1.9-4.6,3.8-4.6,15.2c0,0.8,0,1.6,0,2.5c0,1.8,0,3.9,0,7.4
				c0,0.2-0.1,0.4-0.2,0.5C30.4,40.8,30.3,40.9,30.1,40.9z"/>
			<path class="st0" d="M32.9,78.1c-1,0-1.7-0.8-1.7-1.8L31,35.2c0-1,0.7-2,1.7-2.2l43.4-10.5c0.1,0,0.3,0,0.4,0
				c1,0,1.7,0.8,1.7,1.8l0.1,41.1c0,1-0.7,2-1.7,2.2L33.3,78.1C33.1,78.1,33,78.1,32.9,78.1z"/>
			<path class="st3" d="M32.9,33.9l43.4-10.5c0.5-0.1,1,0.2,1,0.8l0.1,41.1c0,0.6-0.4,1.2-1,1.3L33.1,77.1c-0.5,0.1-1-0.2-1-0.8
				L32,35.2C32,34.6,32.4,34,32.9,33.9z"/>
			
				<linearGradient id="SVGID_2_" gradientUnits="userSpaceOnUse" x1="41.3008" y1="73.3433" x2="47.5179" y2="34.0901" gradientTransform="matrix(1 -2.783192e-03 2.783192e-03 1 11.3557 -13.291)">
				<stop  offset="0.3006" style="stop-color:#E7E090"/>
				<stop  offset="0.8712" style="stop-color:#F0EEC4"/>
			</linearGradient>
			<path class="st4" d="M32.9,33.9l43.4-10.5c0.5-0.1,1,0.2,1,0.8l0.1,37.1C64.6,64.4,32,55.5,32,51.5l0-16.2
				C32,34.6,32.4,34,32.9,33.9z"/>
			<path class="st0" d="M27.7,49.7c-5.1-1.5-23.9-7.2-24.8-8.3c0,0-1.6-3.6-0.4-6.1c1.1-1.3,5.1-2.1,7.5-2.2c0,0,9.5,2.2,14.2,3.6
				c-0.8,1.9,3.4,5.4,4.8,5.6c0,1.9,0,4,0,6.8C29,49.4,28.5,50,27.7,49.7z"/>
			<path class="st1" d="M27,43.4c-10.7-3.2-23-6.9-23.5-7.5c-0.3-0.3,0.2-0.5,0.6-0.8c2-0.8,3.9-1.2,6.1-1.3c1,0.2,8.7,2.2,13.1,3.4
				c0.5,3,3.3,4.7,4.7,5.4C28.7,42.9,27.6,43.6,27,43.4z"/>
		</g>
		<polygon class="st5" points="36.1,55.5 45,49.9 48.1,57.7 72.6,24.9 80.5,30.2 45.7,66.7 		"/>
	</g>
	<g>
		<g>
			<g>
				<path class="st1" d="M140.9,61.5l-21.7,0.1l12.7-35l-18.6,0.1L102,57.7c-4.2,11.6,6.1,11.4,6.1,11.4l40.9-0.1
					c0,0,10.4,0,10.5-11.5l0.1-16.5l-18.6,0.1L140.9,61.5z M220.4,37.7l-32.2,0l2.3-11.5l-20,0.1l-6,31.1
					c-2.2,11.4,8.3,11.4,8.3,11.4l41.9-0.1c1.8,0,3.6-1.7,4-3.8c0.4-2-0.8-3.7-2.6-3.7l-32.2,0.1l3-16.1l32.2-0.1
					c1.8,0,3.6-1.7,4-3.8C223.4,39.3,222.2,37.6,220.4,37.7z M281.5,43.2l-15.2,0l3.7-9.8l13.4,0c1.8,0,3.6-1.7,4-3.8
					c0.4-2-0.8-3.7-2.6-3.7l-51.3,0.1c-1.8,0-3.6,1.7-4,3.7c-0.4,2.1,0.8,3.8,2.6,3.8l19.3-0.1l-3.7,9.8l-18.5,0.1
					c-1.8,0-3.6,1.7-4,3.8c-0.4,2,0.8,3.7,2.6,3.7l17.1,0l-6.7,17.7l18.6-0.1l6.7-17.7l16.5,0c1.8,0,3.7-1.7,4.1-3.8
					C284.5,44.9,283.3,43.2,281.5,43.2z M345.7,29.7l-32.2,0.1l2.1-5.6l-18.6,0.1l-12,31.8l18.6-0.1l7.1-18.7l12,0l-11.7,31.1
					l18.6-0.1l11.8-31.1l3,0c1.8,0,3.6-1.7,4-3.8C348.7,31.5,347.5,29.7,345.7,29.7z M224,20.8l-4,0c-1.1,0-2.1,0.8-2.3,1.8l-2,9.3
					c-0.2,1,0.5,1.8,1.6,1.8l4,0c1.1,0,2.1-0.8,2.3-1.8l2-9.3C225.8,21.6,225.1,20.8,224,20.8z M204.5,33.7l4,0
					c1.1,0,2.1-0.8,2.3-1.8l2-9.3c0.2-1-0.5-1.8-1.6-1.8l-4,0c-1.1,0-2.1,0.8-2.3,1.8l-2,9.3C202.7,32.9,203.4,33.7,204.5,33.7z"/>
			</g>
		</g>
		<g>
			<path class="st6" d="M362.2,31.4c-1,1-2.2,1.5-3.6,1.5c-1.4,0-2.6-0.5-3.6-1.5c-1-1-1.5-2.2-1.5-3.6c0-1.4,0.5-2.6,1.5-3.6
				c1-1,2.2-1.5,3.6-1.5s2.5,0.5,3.6,1.5c1,1,1.5,2.2,1.5,3.6C363.7,29.2,363.2,30.4,362.2,31.4z M361.7,24.7
				c-0.9-0.9-1.9-1.3-3.1-1.3c-1.2,0-2.2,0.5-3.1,1.3c-0.9,0.9-1.3,1.9-1.3,3.1c0,1.2,0.5,2.2,1.3,3.1c0.9,0.9,1.9,1.3,3.1,1.3
				s2.2-0.5,3.1-1.3c0.9-0.9,1.3-1.9,1.3-3.1C363.1,26.6,362.6,25.6,361.7,24.7z M356.2,24.4l3.2,0c0.5,0,1,0.1,1.3,0.4
				c0.3,0.5,0.5,0.9,0.5,1.4c0,0.6-0.2,1.1-0.5,1.6c-0.2,0.1-0.4,0.2-0.8,0.4l1.3,2.9l-1,0l-1.2-2.8l-2.1,0l0,2.9l-0.8,0L356.2,24.4
				z M357,25.1l0,2.5l2.3,0c0.3-0.1,0.5-0.2,0.7-0.4c0.2-0.2,0.4-0.6,0.4-1c0-0.3-0.1-0.6-0.4-0.8c-0.2-0.2-0.4-0.4-0.7-0.4
				L357,25.1z"/>
		</g>
	</g>
</g>
</svg>
