<svg xmlns="http://www.w3.org/2000/svg" viewBox="0 0 89 30.73"><defs><style>.cls-1{fill:#9c9c9c;}</style></defs><title>アセット 21</title><g id="レイヤー_2" data-name="レイヤー 2"><g id="_5" data-name="5"><path class="cls-1" d="M4.82,30.51A34.51,34.51,0,0,0,0,30.69a19.11,19.11,0,0,1,1-4.79A18.45,18.45,0,0,1,6.1,18.58,51.65,51.65,0,0,1,12.27,14c3.44-2.36,4.49-3.59,4.49-5.5,0-2.54-2-4.11-5.16-4.11A5.29,5.29,0,0,0,6.84,6.64a7.11,7.11,0,0,0-1.16,3.44L.34,9.45a11.22,11.22,0,0,1,2.58-6C4.79,1.3,7.74.14,11.48.14,18,.14,22.07,3.28,22.07,8.4a7.59,7.59,0,0,1-2.66,6c-1,1-1.42,1.27-6.28,4.6a32.68,32.68,0,0,0-4.45,3.74,9,9,0,0,0-2.13,3.37H17a39.18,39.18,0,0,0,5.46-.3v4.94c-1.76-.15-3.25-.22-5.65-.22Z"/><path class="cls-1" d="M27.18,4c0-1.72,0-2.74-.1-3.33a22.69,22.69,0,0,0,2.61.1h3.6A14.75,14.75,0,0,0,35.76.63l2,1.95a5.27,5.27,0,0,0-.4,1.09c-.17.59-1,2.77-1.49,4.09S35,9.84,34.18,11.55a17.57,17.57,0,0,1,2,3.6A11.94,11.94,0,0,1,37,19c0,2.11-.59,3.43-1.82,4.06a7,7,0,0,1-3.23.56h-.46a6.83,6.83,0,0,0-.63-3.33,7.93,7.93,0,0,0,1,.07c1.48,0,1.85-.3,1.85-1.52A10.46,10.46,0,0,0,33.16,16a11.24,11.24,0,0,0-2.31-4.22A33.78,33.78,0,0,0,33.72,4H30.58V26a39,39,0,0,0,.17,4.49H27a40,40,0,0,0,.2-4.55ZM37.78,3.4A25.75,25.75,0,0,0,37.61,0h3.63a29.84,29.84,0,0,0-.17,3.37v.3h2a11.53,11.53,0,0,0,2.41-.17V6.93a18.34,18.34,0,0,0-2.38-.13h-2v3.7a33.49,33.49,0,0,0,4.39-1.22v3.14A69.38,69.38,0,0,1,38,14.32c-.46.1-.92.23-1.39.36L36,11.32c.53,0,.92-.07,1.82-.2Zm12,6.7c0,.66.26.76,1.88.76,1,0,1.32-.07,1.52-.26s.36-1.06.4-2.64a7.24,7.24,0,0,0,3,1.09c-.13,2.54-.4,3.53-1.09,4.16s-1.62.69-4.52.69a13,13,0,0,1-2.71-.17l-.23.46c0,.07-.1.2-.2.43-.26.56-.43.86-.69,1.32h4.19a21.17,21.17,0,0,0,3.33-.13,28.13,28.13,0,0,0-.13,3.47V26.8a33.27,33.27,0,0,0,.2,3.76H51V29.28H41.41V30.5H37.84a18.76,18.76,0,0,0,.2-3.33V19a25.78,25.78,0,0,0-.13-3.17c.92.07,1.55.1,3.37.1h2.15A11.15,11.15,0,0,0,44.61,13l2.64.43c-.63-.4-.83-.89-.83-2V3.27A30.37,30.37,0,0,0,46.26,0h3.66a19.06,19.06,0,0,0-.17,3V4.16a17.45,17.45,0,0,0,4.52-2.64l1.85,3L53.92,5.68a28.34,28.34,0,0,1-4.16,1.88Zm-8.35,11H51V18.88H41.41Zm0,5.25H51V23.9H41.41Z"/><path class="cls-1" d="M64.87,11c0,.92,0,1.65,0,2.11a54.35,54.35,0,0,1-1.19,11.52,18.2,18.2,0,0,1-2.28,5.64,15.79,15.79,0,0,0-2.87-2.87,12.81,12.81,0,0,0,1.62-3.89c.92-3.33,1.35-8.58,1.35-16.77,0-2,0-3-.13-4.42,1.19.1,2.51.17,4.06.17h7.76V1.92A10.74,10.74,0,0,0,73,0h3.93a7.16,7.16,0,0,0-.17,1.91v.5H85A30.47,30.47,0,0,0,89,2.25v3.5a29.26,29.26,0,0,0-3.43-.13H83.06V7.92H85.8A19,19,0,0,0,89,7.76v3.33A28.69,28.69,0,0,0,85.76,11H83.06v3.33a16.32,16.32,0,0,0,.1,1.92A20.15,20.15,0,0,0,81,16.14H78v2.15h5.94A24.71,24.71,0,0,0,87,18.15a19.84,19.84,0,0,0-.13,2.8v5.21c0,2.21-1.06,2.84-4.79,2.84-.36,0-.76,0-1.58,0a13.8,13.8,0,0,0-.79-3.3c1,.1,1.75.17,2.38.17,1.22,0,1.35-.1,1.35-.89V21.39H78v5.45a26.82,26.82,0,0,0,.2,3.83H74.34a27.54,27.54,0,0,0,.2-3.8V21.39H69.82v4.06A27.84,27.84,0,0,0,70,29.08H66.19a30.41,30.41,0,0,0,.17-3.63V20.86a22.23,22.23,0,0,0-.13-2.71,25,25,0,0,0,3,.13h5.28V16.14H71.6a19.15,19.15,0,0,0-2.11.07,18.29,18.29,0,0,0,.1-1.92V11Zm4.72-3V5.61H64.94V7.92Zm10,0V5.61H73.06V7.92Zm-6.54,5.31h6.54V11H73.06Z"/></g></g></svg>