<svg xmlns="http://www.w3.org/2000/svg" viewBox="0 0 44.77 33.16"><defs><style>.cls-1{fill:#9c9c9c;}</style></defs><title>アセット 15</title><g id="レイヤー_2" data-name="レイヤー 2"><g id="_5" data-name="5"><path class="cls-1" d="M18.36,8.4c-1-2.92-2.52-4-5.36-4S8.08,5.76,6.72,8.52A17.58,17.58,0,0,0,5.08,15.6c2.16-2.92,4.52-4,8.56-4s7.52,1.76,9.28,4.76a11.5,11.5,0,0,1,1.44,6c0,6.32-4.8,10.8-11.6,10.8a12.6,12.6,0,0,1-8.12-2.64C1.68,28,0,23.16,0,17.12,0,12.2,1.24,7.48,3.28,4.76A11.36,11.36,0,0,1,13,0a11,11,0,0,1,8.2,3,11.56,11.56,0,0,1,2.52,4.08Zm-12.48,14c0,3.64,2.84,6.32,6.76,6.32a6.36,6.36,0,0,0,5.48-2.8A6.82,6.82,0,0,0,19,22.24c0-4-2.36-6.28-6.32-6.28S5.88,18.68,5.88,22.36Z"/><path class="cls-1" d="M32.68,28a25.91,25.91,0,0,0,.24,4.32H28.45a25.32,25.32,0,0,0,.24-4.26V12.25a26,26,0,0,0-.24-3.9c1.23.06,2,.09,3.81.09h8.4a30.59,30.59,0,0,0,4.11-.21v4a28.75,28.75,0,0,0-4.11-.21h-8v6.36H39.1a29.69,29.69,0,0,0,4.08-.21v4A29.41,29.41,0,0,0,39.1,22H32.68Z"/></g></g></svg>