<svg xmlns="http://www.w3.org/2000/svg" viewBox="0 0 44.57 32.88"><defs><style>.cls-1{fill:#9c9c9c;}</style></defs><title>アセット 14</title><g id="レイヤー_2" data-name="レイヤー 2"><g id="_5" data-name="5"><path class="cls-1" d="M5.52,23.88a5.47,5.47,0,0,0,1.2,2.32,6.06,6.06,0,0,0,4.92,2,6.2,6.2,0,0,0,6.56-6.6c0-3.92-2.48-6.44-6.28-6.44A7,7,0,0,0,7,17a4.59,4.59,0,0,0-1.2,1.8l-5-.48c.4-2.84.44-3,.52-4.16L2.2,4.28c0-.72.12-2.08.16-4.08C3.56.28,4.48.32,6.6.32h9.84A30.41,30.41,0,0,0,22,0V5a38.46,38.46,0,0,0-5.52-.32H7.08l-.64,7q-.06.48-.24,1.68A9.84,9.84,0,0,1,13,11a10.28,10.28,0,0,1,7.8,3,9.83,9.83,0,0,1,2.84,7.52c0,7-4.6,11.4-12,11.4-4,0-6.92-1.12-9.12-3.48A11.82,11.82,0,0,1,0,25Z"/><path class="cls-1" d="M32.48,27.71A25.91,25.91,0,0,0,32.72,32H28.25a25.32,25.32,0,0,0,.24-4.26V12a26,26,0,0,0-.24-3.9c1.23.06,2,.09,3.81.09h8.4a30.59,30.59,0,0,0,4.11-.21v4a28.75,28.75,0,0,0-4.11-.21h-8v6.36H38.9A29.69,29.69,0,0,0,43,17.94v4a29.41,29.41,0,0,0-4.08-.21H32.48Z"/></g></g></svg>