<svg xmlns="http://www.w3.org/2000/svg" viewBox="0 0 85.26 30.66"><defs><style>.cls-1{fill:#9c9c9c;}</style></defs><title>アセット 20</title><g id="レイヤー_2" data-name="レイヤー 2"><g id="_5" data-name="5"><path class="cls-1" d="M5.35,30.51a31,31,0,0,0,.3-4.86V5H3.85A33.29,33.29,0,0,0,0,5.26V.51A20.72,20.72,0,0,0,3.74.74H7.18A27.24,27.24,0,0,0,11,.55a56.29,56.29,0,0,0-.3,6.17V25.64a31.34,31.34,0,0,0,.3,4.86Z"/><path class="cls-1" d="M23.44,4c0-1.72,0-2.74-.1-3.33A22.69,22.69,0,0,0,26,.76h3.6A14.75,14.75,0,0,0,32,.63l2,1.95a5.27,5.27,0,0,0-.4,1.09c-.17.59-1,2.77-1.49,4.09s-.86,2.08-1.68,3.79a17.57,17.57,0,0,1,2,3.6A11.94,11.94,0,0,1,33.25,19c0,2.11-.59,3.43-1.82,4.06a7,7,0,0,1-3.23.56h-.46a6.83,6.83,0,0,0-.63-3.33,7.93,7.93,0,0,0,1,.07c1.48,0,1.85-.3,1.85-1.52A10.46,10.46,0,0,0,29.42,16a11.24,11.24,0,0,0-2.31-4.22A33.78,33.78,0,0,0,30,4H26.84V26A39,39,0,0,0,27,30.5H23.25a40,40,0,0,0,.2-4.55ZM34,3.4A25.75,25.75,0,0,0,33.87,0H37.5a29.84,29.84,0,0,0-.17,3.37v.3h2a11.53,11.53,0,0,0,2.41-.17V6.93a18.34,18.34,0,0,0-2.38-.13h-2v3.7a33.49,33.49,0,0,0,4.39-1.22v3.14a69.38,69.38,0,0,1-7.46,1.91c-.46.1-.92.23-1.39.36l-.66-3.37c.53,0,.92-.07,1.82-.2Zm12,6.7c0,.66.26.76,1.88.76,1,0,1.32-.07,1.52-.26s.36-1.06.4-2.64a7.24,7.24,0,0,0,3,1.09c-.13,2.54-.4,3.53-1.09,4.16s-1.62.69-4.52.69a13,13,0,0,1-2.71-.17l-.23.46c0,.07-.1.2-.2.43-.26.56-.43.86-.69,1.32h4.19a21.17,21.17,0,0,0,3.33-.13,28.13,28.13,0,0,0-.13,3.47V26.8a33.27,33.27,0,0,0,.2,3.76H47.24V29.28H37.67V30.5H34.1a18.76,18.76,0,0,0,.2-3.33V19a25.78,25.78,0,0,0-.13-3.17c.92.07,1.55.1,3.37.1h2.15A11.15,11.15,0,0,0,40.87,13l2.64.43c-.63-.4-.83-.89-.83-2V3.27A30.37,30.37,0,0,0,42.52,0h3.66A19.06,19.06,0,0,0,46,3V4.16a17.45,17.45,0,0,0,4.52-2.64l1.85,3L50.18,5.68A28.34,28.34,0,0,1,46,7.56Zm-8.35,11h9.57V18.88H37.67Zm0,5.25h9.57V23.9H37.67Z"/><path class="cls-1" d="M61.13,11c0,.92,0,1.65,0,2.11a54.35,54.35,0,0,1-1.19,11.52,18.2,18.2,0,0,1-2.28,5.64,15.79,15.79,0,0,0-2.87-2.87,12.81,12.81,0,0,0,1.62-3.89c.92-3.33,1.35-8.58,1.35-16.77,0-2,0-3-.13-4.42,1.19.1,2.51.17,4.06.17h7.76V1.92A10.74,10.74,0,0,0,69.25,0h3.93A7.16,7.16,0,0,0,73,1.95v.5H81.3a30.47,30.47,0,0,0,3.93-.2v3.5a29.26,29.26,0,0,0-3.43-.13H79.32V7.92h2.74a19,19,0,0,0,3.2-.17v3.33A28.69,28.69,0,0,0,82,11H79.32v3.33a16.32,16.32,0,0,0,.1,1.92,20.15,20.15,0,0,0-2.18-.07h-3v2.15h5.94a24.71,24.71,0,0,0,3.14-.13,19.84,19.84,0,0,0-.13,2.8v5.21c0,2.21-1.06,2.84-4.79,2.84-.36,0-.76,0-1.58,0a13.8,13.8,0,0,0-.79-3.3c1,.1,1.75.17,2.38.17,1.22,0,1.35-.1,1.35-.89V21.39H74.23v5.45a26.82,26.82,0,0,0,.2,3.83H70.6a27.54,27.54,0,0,0,.2-3.8V21.39H66.08v4.06a27.84,27.84,0,0,0,.13,3.63H62.45a30.41,30.41,0,0,0,.17-3.63V20.86a22.23,22.23,0,0,0-.13-2.71,25,25,0,0,0,3,.13H70.8V16.14H67.86a19.15,19.15,0,0,0-2.11.07,18.29,18.29,0,0,0,.1-1.92V11Zm4.72-3V5.61H61.2V7.92Zm10,0V5.61H69.32V7.92Zm-6.54,5.31h6.54V11H69.32Z"/></g></g></svg>