<svg xmlns="http://www.w3.org/2000/svg" viewBox="0 0 44.61 32.11"><defs><style>.cls-1{fill:#9c9c9c;}</style></defs><title>アセット 16</title><g id="レイヤー_2" data-name="レイヤー 2"><g id="_5" data-name="5"><path class="cls-1" d="M23.68,4.72a27.17,27.17,0,0,0-4.16,5.76,51.51,51.51,0,0,0-7.44,21.64H5.76A59.77,59.77,0,0,1,10.6,16.64,66.07,66.07,0,0,1,17.6,5H5.24A38.15,38.15,0,0,0,0,5.28V0A44.14,44.14,0,0,0,5.48.28H18.2a44.16,44.16,0,0,0,5.48-.2Z"/><path class="cls-1" d="M32.52,27.67A25.91,25.91,0,0,0,32.76,32H28.29a25.32,25.32,0,0,0,.24-4.26V11.93A26,26,0,0,0,28.29,8c1.23.06,2,.09,3.81.09h8.4a30.59,30.59,0,0,0,4.11-.21v4a28.75,28.75,0,0,0-4.11-.21h-8v6.36h6.42A29.69,29.69,0,0,0,43,17.9v4a29.41,29.41,0,0,0-4.08-.21H32.52Z"/></g></g></svg>