<?xml version="1.0" encoding="utf-8"?>
<!-- Generator: Adobe Illustrator 21.1.0, SVG Export Plug-In . SVG Version: 6.00 Build 0)  -->
<svg version="1.1" id="_x32_" xmlns="http://www.w3.org/2000/svg" xmlns:xlink="http://www.w3.org/1999/xlink" x="0px" y="0px"
	 viewBox="0 0 57.1 11" style="enable-background:new 0 0 57.1 11;" xml:space="preserve">
<g>
	<path d="M6.5,3C6.3,2.4,6.2,2.1,6,1.8C5.5,1.3,4.8,1,3.9,1C2.5,1,1.4,1.8,1.4,2.9c0,0.7,0.4,1.2,1.2,1.6C3,4.6,3.1,4.6,4.7,5
		c2.2,0.5,3.1,1.3,3.1,3c0,2-1.4,3.1-3.8,3.1c-1.6,0-2.7-0.5-3.4-1.3C0.3,9.2,0.1,8.8,0,7.8l1.2-0.2c0,0.7,0.1,1,0.4,1.4
		C2.1,9.7,3,10,4,10C5.7,10,6.7,9.3,6.7,8c0-0.7-0.3-1.2-0.8-1.5C5.4,6.2,5.2,6.1,3.5,5.8C2.7,5.6,2.1,5.4,1.6,5.1
		C0.8,4.6,0.3,3.9,0.3,2.9C0.3,1.1,1.8,0,3.9,0C5.3,0,6.4,0.5,7,1.3c0.3,0.4,0.5,0.8,0.6,1.5L6.5,3z"/>
	<path d="M17.2,3.2C17,2.6,16.9,2.3,16.6,2c-0.6-0.7-1.4-1-2.4-1c-2.3,0-3.7,1.7-3.7,4.5c0,2.8,1.4,4.5,3.7,4.5c1.1,0,2-0.4,2.6-1.2
		c0.3-0.4,0.4-0.8,0.6-1.4l1.2,0.3c-0.2,0.8-0.4,1.2-0.8,1.7C17,10.5,15.7,11,14.1,11c-1.3,0-2.5-0.4-3.3-1.2c-1-1-1.5-2.5-1.5-4.3
		c0-1.8,0.6-3.3,1.6-4.4C11.7,0.4,12.8,0,14.1,0c1.3,0,2.4,0.4,3.1,1.1C17.8,1.6,18,2,18.4,2.9L17.2,3.2z"/>
	<path d="M27.3,10.8c0-0.4-0.2-1-0.8-2.4C25.7,6.5,25.2,6,24,6h-2.6v3.3c0,0.7,0,1.1,0.1,1.6h-1.3c0.1-0.5,0.1-0.9,0.1-1.6V1.8
		c0-0.6,0-1.1-0.1-1.6c0.5,0,0.9,0,1.5,0h3.1c2,0,3.2,1,3.2,2.7c0,0.9-0.3,1.6-0.8,2.1c-0.4,0.4-0.8,0.5-1.5,0.7
		c0.6,0.2,0.9,0.5,1.4,1.5c0.3,0.7,0.7,1.4,1.1,2.4c0.2,0.5,0.4,1,0.6,1.3H27.3z M24.8,5c0.6,0,1.2-0.2,1.6-0.6
		c0.4-0.4,0.5-0.8,0.5-1.4c0-1.2-0.7-1.8-2-1.8h-3.4V5H24.8z"/>
	<path d="M37.6,10.9c-0.4-0.1-0.8-0.1-1.6-0.1H32c-0.7,0-1.1,0-1.5,0c0.1-0.5,0.1-1,0.1-1.7V1.8c0-0.6,0-1-0.1-1.6
		c0.5,0,0.9,0,1.5,0h4c0.6,0,1.1,0,1.6-0.1v1.2C37,1.2,36.7,1.2,36,1.2h-4.3v3.6h3.7c0.6,0,1,0,1.6-0.1v1.2
		c-0.5-0.1-0.8-0.1-1.6-0.1h-3.7v4.1h4.4c0.6,0,1,0,1.6-0.1V10.9z"/>
	<path d="M46.6,10.9c-0.4-0.1-0.8-0.1-1.6-0.1H41c-0.7,0-1.1,0-1.5,0c0.1-0.5,0.1-1,0.1-1.7V1.8c0-0.6,0-1-0.1-1.6
		c0.5,0,0.9,0,1.5,0h4c0.6,0,1.1,0,1.6-0.1v1.2C46,1.2,45.7,1.2,45,1.2h-4.3v3.6h3.7c0.6,0,1,0,1.6-0.1v1.2
		c-0.5-0.1-0.8-0.1-1.6-0.1h-3.7v4.1h4.4c0.6,0,1,0,1.6-0.1V10.9z"/>
	<path d="M49.9,0.2c0.1,0.3,0.3,0.6,0.7,1.3l4.4,6.6C55.2,8.3,55.6,9,56,9.6c-0.1-1.1-0.1-1.7-0.1-1.9V1.8c0-0.7,0-1.1-0.1-1.6h1.3
		C57,0.7,57,1.1,57,1.8v7.5c0,0.7,0,1.1,0.1,1.6h-1.5c-0.2-0.4-0.3-0.7-0.7-1.3l-4.5-6.8c-0.1-0.2-0.6-1-0.8-1.3
		c0.1,0.7,0.1,1.3,0.1,1.7v6c0,0.7,0,1.2,0.1,1.7h-1.3c0.1-0.4,0.1-0.9,0.1-1.7V1.8c0-0.6,0-1.1-0.1-1.6H49.9z"/>
</g>
</svg>
