<?xml version="1.0" encoding="utf-8"?>
<!-- Generator: Adobe Illustrator 21.1.0, SVG Export Plug-In . SVG Version: 6.00 Build 0)  -->
<svg version="1.1" id="座席選択" xmlns="http://www.w3.org/2000/svg" xmlns:xlink="http://www.w3.org/1999/xlink" x="0px"
	 y="0px" viewBox="0 0 17.6 18.4" style="enable-background:new 0 0 17.6 18.4;" xml:space="preserve">
<style type="text/css">
	.st0{fill:#FFFFFF;}
</style>
<g>
	<g>
		<g>
			<polygon class="st0" points="14.3,16.2 12.1,10.3 5.8,10.3 5.8,3.2 6.5,3.2 6.5,9.6 12.5,9.6 14.7,15.3 16.6,14.6 16.9,15.2 			
				"/>
		</g>
		<g>
			<polygon class="st0" points="14,16.9 11.7,10.8 5.3,10.8 5.3,2.6 7,2.6 7,9.1 12.9,9.1 15,14.7 17,13.9 17.6,15.5 			"/>
		</g>
	</g>
	<g>
		<g>
			<rect x="6.1" y="6.8" class="st0" width="5.3" height="0.7"/>
		</g>
		<g>
			<rect x="5.6" y="6.3" class="st0" width="6.3" height="1.7"/>
		</g>
	</g>
	<g>
		<g>
			<ellipse class="st0" cx="7.2" cy="2.3" rx="1.8" ry="1.8"/>
		</g>
		<g>
			<path class="st0" d="M7.2,4.6c-1.3,0-2.3-1-2.3-2.3S5.9,0,7.2,0s2.3,1,2.3,2.3S8.4,4.6,7.2,4.6z M7.2,1.1c-0.7,0-1.2,0.6-1.2,1.2
				s0.6,1.2,1.2,1.2c0.7,0,1.2-0.6,1.2-1.2S7.8,1.1,7.2,1.1z"/>
		</g>
	</g>
	<g>
		<g>
			<path class="st0" d="M6.4,17.9c-3.2,0-5.9-2.6-5.9-5.9c0-2.4,1.5-4.6,3.8-5.5l0.2,0.6c-2,0.8-3.3,2.7-3.3,4.9
				c0,2.9,2.3,5.2,5.2,5.2c1.8,0,3.5-0.9,4.4-2.5l0.6,0.3C10.3,16.8,8.4,17.9,6.4,17.9z"/>
		</g>
		<g>
			<path class="st0" d="M6.4,18.4C2.9,18.4,0,15.5,0,12c0-2.6,1.7-5,4.1-6l0.5-0.2l0.6,1.6L4.7,7.7c-1.8,0.7-3,2.4-3,4.4
				c0,2.6,2.1,4.7,4.7,4.7c1.6,0,3.1-0.8,4-2.2l0.3-0.4l1.5,0.9l-0.3,0.4C10.7,17.3,8.6,18.4,6.4,18.4z"/>
		</g>
	</g>
</g>
</svg>
