<?xml version="1.0" encoding="utf-8"?>
<!-- Generator: Adobe Illustrator 20.1.0, SVG Export Plug-In . SVG Version: 6.00 Build 0)  -->
<svg version="1.1" id="レイヤー_1" xmlns="http://www.w3.org/2000/svg" xmlns:xlink="http://www.w3.org/1999/xlink" x="0px"
	 y="0px" viewBox="0 0 100 100" style="enable-background:new 0 0 100 100;" xml:space="preserve">
<style type="text/css">
	.st0{display:none;}
	.st1{display:inline;}
	.st2{clip-path:url(#SVGID_2_);}
	.st3{fill:#AFAFAF;}
	.st4{fill:#99999A;}
	.st5{clip-path:url(#SVGID_4_);}
	.st6{fill:#2881B6;}
	.st7{clip-path:url(#SVGID_6_);}
	.st8{fill:#FFFFFF;}
</style>
<g class="st0">
	<g class="st1">
		<g>
			<g>
				<g>
					<defs>
						<rect id="SVGID_1_" x="200" width="100" height="100"/>
					</defs>
					<clipPath id="SVGID_2_">
						<use xlink:href="#SVGID_1_"  style="overflow:visible;"/>
					</clipPath>
					<g class="st2">
						
							<rect x="263.8" y="46.1" transform="matrix(0.7071 -0.7071 0.7071 0.7071 66.2781 257.0325)" class="st3" width="159.2" height="4.8"/>
						
							<rect x="249.5" y="46.1" transform="matrix(0.7071 -0.7071 0.7071 0.7071 62.0839 246.9185)" class="st3" width="159.2" height="4.8"/>
						
							<rect x="235.2" y="46.1" transform="matrix(0.7071 -0.7071 0.7071 0.7071 57.8897 236.8046)" class="st3" width="159.2" height="4.8"/>
						
							<rect x="220.9" y="46.1" transform="matrix(0.7071 -0.7071 0.7071 0.7071 53.6954 226.6906)" class="st3" width="159.2" height="4.8"/>
						
							<rect x="206.7" y="46.1" transform="matrix(0.7071 -0.7071 0.7071 0.7071 49.5719 216.6645)" class="st3" width="159.2" height="4.8"/>
						
							<rect x="192.4" y="46.1" transform="matrix(0.7071 -0.7071 0.7071 0.7071 45.3777 206.5505)" class="st3" width="159.2" height="4.8"/>
						
							<rect x="178.1" y="46.1" transform="matrix(0.7071 -0.7071 0.7071 0.7071 41.1835 196.4366)" class="st3" width="159.2" height="4.8"/>
						
							<rect x="163.8" y="46.1" transform="matrix(0.7071 -0.7071 0.7071 0.7071 36.9893 186.3227)" class="st3" width="159.2" height="4.8"/>
						
							<rect x="149.5" y="46.1" transform="matrix(0.7071 -0.7071 0.7071 0.7071 32.7951 176.2086)" class="st3" width="159.2" height="4.8"/>
						
							<rect x="135.2" y="46.1" transform="matrix(0.7071 -0.7071 0.7071 0.7071 28.6008 166.0947)" class="st3" width="159.2" height="4.8"/>
						
							<rect x="120.9" y="46.1" transform="matrix(0.7071 -0.7071 0.7071 0.7071 24.4066 155.9807)" class="st3" width="159.2" height="4.8"/>
						
							<rect x="106.7" y="46.1" transform="matrix(0.7071 -0.7071 0.7071 0.7071 20.2831 145.9546)" class="st3" width="159.2" height="4.8"/>
						
							<rect x="92.4" y="46.1" transform="matrix(0.7071 -0.7071 0.7071 0.7071 16.0889 135.8407)" class="st3" width="159.2" height="4.8"/>
						
							<rect x="78.1" y="46.1" transform="matrix(0.7071 -0.7071 0.7071 0.7071 11.8947 125.7267)" class="st3" width="159.2" height="4.8"/>
					</g>
				</g>
			</g>
		</g>
	</g>
	<g class="st1">
		<g>
			<path class="st4" d="M260,10.1h-20c-16.4,0-29.9,10.8-29.9,23.9v52.6c0,1.8,1.8,3.2,4,3.2h71.8c2.2,0,4-1.4,4-3.2V34.1
				C289.9,20.9,276.4,10.1,260,10.1L260,10.1z"/>
		</g>
	</g>
</g>
<g class="st0">
	<g class="st1">
		<g>
			<g>
				<g>
					<defs>
						<rect id="SVGID_3_" x="100" width="100" height="100"/>
					</defs>
					<clipPath id="SVGID_4_">
						<use xlink:href="#SVGID_3_"  style="overflow:visible;"/>
					</clipPath>
					<g class="st5">
						
							<rect x="163.8" y="46.1" transform="matrix(0.7071 -0.7071 0.7071 0.7071 36.9893 186.3227)" class="st3" width="159.2" height="4.8"/>
						
							<rect x="149.5" y="46.1" transform="matrix(0.7071 -0.7071 0.7071 0.7071 32.7951 176.2086)" class="st3" width="159.2" height="4.8"/>
						
							<rect x="135.2" y="46.1" transform="matrix(0.7071 -0.7071 0.7071 0.7071 28.6008 166.0947)" class="st3" width="159.2" height="4.8"/>
						
							<rect x="120.9" y="46.1" transform="matrix(0.7071 -0.7071 0.7071 0.7071 24.4066 155.9807)" class="st3" width="159.2" height="4.8"/>
						
							<rect x="106.7" y="46.1" transform="matrix(0.7071 -0.7071 0.7071 0.7071 20.2831 145.9546)" class="st3" width="159.2" height="4.8"/>
						
							<rect x="92.4" y="46.1" transform="matrix(0.7071 -0.7071 0.7071 0.7071 16.0889 135.8407)" class="st3" width="159.2" height="4.8"/>
						
							<rect x="78.1" y="46.1" transform="matrix(0.7071 -0.7071 0.7071 0.7071 11.8947 125.7267)" class="st3" width="159.2" height="4.8"/>
						
							<rect x="63.8" y="46.1" transform="matrix(0.7071 -0.7071 0.7071 0.7071 7.7004 115.6127)" class="st3" width="159.2" height="4.8"/>
						
							<rect x="49.5" y="46.1" transform="matrix(0.7071 -0.7071 0.7071 0.7071 3.5062 105.4988)" class="st3" width="159.2" height="4.8"/>
						
							<rect x="35.2" y="46.1" transform="matrix(0.7071 -0.7071 0.7071 0.7071 -0.688 95.3848)" class="st3" width="159.2" height="4.8"/>
						
							<rect x="20.9" y="46.1" transform="matrix(0.7071 -0.7071 0.7071 0.7071 -4.8822 85.2708)" class="st3" width="159.2" height="4.8"/>
						
							<rect x="6.7" y="46.1" transform="matrix(0.7071 -0.7071 0.7071 0.7071 -9.0057 75.2447)" class="st3" width="159.2" height="4.8"/>
						
							<rect x="-7.6" y="46.1" transform="matrix(0.7071 -0.7071 0.7071 0.7071 -13.2 65.1307)" class="st3" width="159.2" height="4.8"/>
						
							<rect x="-21.9" y="46.1" transform="matrix(0.7071 -0.7071 0.7071 0.7071 -17.3942 55.0168)" class="st3" width="159.2" height="4.8"/>
					</g>
				</g>
			</g>
		</g>
	</g>
	<g class="st1">
		<g>
			<path class="st6" d="M160,10.1h-20c-16.4,0-29.9,10.8-29.9,23.9v52.6c0,1.8,1.8,3.2,4,3.2h71.8c2.2,0,4-1.4,4-3.2V34.1
				C189.9,20.9,176.4,10.1,160,10.1L160,10.1z"/>
		</g>
	</g>
</g>
<g>
	<g>
		<g>
			<g>
				<g>
					<defs>
						<rect id="SVGID_5_" width="100" height="100"/>
					</defs>
					<clipPath id="SVGID_6_">
						<use xlink:href="#SVGID_5_"  style="overflow:visible;"/>
					</clipPath>
					<g class="st7">
						
							<rect x="63.8" y="46.1" transform="matrix(0.7071 -0.7071 0.7071 0.7071 7.701 115.6129)" class="st3" width="159.2" height="4.8"/>
						
							<rect x="49.5" y="46.1" transform="matrix(0.7071 -0.7071 0.7071 0.7071 3.5069 105.499)" class="st3" width="159.2" height="4.8"/>
						
							<rect x="35.2" y="46.1" transform="matrix(0.7071 -0.7071 0.7071 0.7071 -0.6874 95.385)" class="st3" width="159.2" height="4.8"/>
						
							<rect x="20.9" y="46.1" transform="matrix(0.7071 -0.7071 0.7071 0.7071 -4.8816 85.2711)" class="st3" width="159.2" height="4.8"/>
						
							<rect x="6.7" y="46.1" transform="matrix(0.7071 -0.7071 0.7071 0.7071 -9.0051 75.2449)" class="st3" width="159.2" height="4.8"/>
						
							<rect x="-7.6" y="46.1" transform="matrix(0.7071 -0.7071 0.7071 0.7071 -13.1994 65.131)" class="st3" width="159.2" height="4.8"/>
						
							<rect x="-21.9" y="46.1" transform="matrix(0.7071 -0.7071 0.7071 0.7071 -17.3936 55.017)" class="st3" width="159.2" height="4.8"/>
						
							<rect x="-36.2" y="46.1" transform="matrix(0.7071 -0.7071 0.7071 0.7071 -21.5878 44.9031)" class="st3" width="159.2" height="4.8"/>
						
							<rect x="-50.5" y="46.1" transform="matrix(0.7071 -0.7071 0.7071 0.7071 -25.782 34.7891)" class="st3" width="159.2" height="4.8"/>
						
							<rect x="-64.8" y="46.1" transform="matrix(0.7071 -0.7071 0.7071 0.7071 -29.9762 24.6751)" class="st3" width="159.2" height="4.8"/>
						
							<rect x="-79.1" y="46.1" transform="matrix(0.7071 -0.7071 0.7071 0.7071 -34.1705 14.5611)" class="st3" width="159.2" height="4.8"/>
						
							<rect x="-93.3" y="46.1" transform="matrix(0.7071 -0.7071 0.7071 0.7071 -38.294 4.535)" class="st3" width="159.2" height="4.8"/>
						
							<rect x="-107.6" y="46.1" transform="matrix(0.7071 -0.7071 0.7071 0.7071 -42.4882 -5.5789)" class="st3" width="159.2" height="4.8"/>
						
							<rect x="-121.9" y="46.1" transform="matrix(0.7071 -0.7071 0.7071 0.7071 -46.6824 -15.6929)" class="st3" width="159.2" height="4.8"/>
					</g>
				</g>
			</g>
		</g>
	</g>
	<g>
		<g>
			<g>
				<path class="st8" d="M14.1,87.2c-0.8,0-1.3-0.4-1.3-0.5V34.1C12.8,22.3,25,12.8,40,12.8h20c15,0,27.2,9.5,27.2,21.2v52.6
					c0,0.1-0.5,0.5-1.3,0.5L14.1,87.2L14.1,87.2z"/>
				<path class="st4" d="M60,15.5c13.3,0,24.6,8.5,24.6,18.6v50.5h-69V34.1C15.5,24,26.7,15.5,40,15.5H60 M60,10.1H40
					c-16.4,0-29.9,10.8-29.9,23.9v52.6c0,1.8,1.8,3.2,4,3.2h71.8c2.2,0,4-1.4,4-3.2V34.1C89.9,20.9,76.4,10.1,60,10.1L60,10.1z"/>
			</g>
		</g>
	</g>
</g>
</svg>
