<?xml version="1.0" encoding="utf-8"?>
<!-- Generator: Adobe Illustrator 20.1.0, SVG Export Plug-In . SVG Version: 6.00 Build 0)  -->
<svg version="1.1" id="レイヤー_1" xmlns="http://www.w3.org/2000/svg" xmlns:xlink="http://www.w3.org/1999/xlink" x="0px"
	 y="0px" viewBox="0 0 100 100" style="enable-background:new 0 0 100 100;" xml:space="preserve">
<style type="text/css">
	.st0{clip-path:url(#SVGID_2_);}
	.st1{fill:#AFAFAF;}
	.st2{fill:#99999A;}
</style>
<g>
	<g>
		<g>
			<g>
				<g>
					<defs>
						<rect id="SVGID_1_" x="0" width="100" height="100"/>
					</defs>
					<clipPath id="SVGID_2_">
						<use xlink:href="#SVGID_1_"  style="overflow:visible;"/>
					</clipPath>
					<g class="st0">
						
							<rect x="63.8" y="46.1" transform="matrix(0.7071 -0.7071 0.7071 0.7071 7.6995 115.6112)" class="st1" width="159.2" height="4.8"/>
						
							<rect x="49.5" y="46.1" transform="matrix(0.7071 -0.7071 0.7071 0.7071 3.5053 105.4971)" class="st1" width="159.2" height="4.8"/>
						
							<rect x="35.2" y="46.1" transform="matrix(0.7071 -0.7071 0.7071 0.7071 -0.689 95.3833)" class="st1" width="159.2" height="4.8"/>
						
							<rect x="20.9" y="46.1" transform="matrix(0.7071 -0.7071 0.7071 0.7071 -4.8832 85.2693)" class="st1" width="159.2" height="4.8"/>
						
							<rect x="6.7" y="46.1" transform="matrix(0.7071 -0.7071 0.7071 0.7071 -9.0067 75.2431)" class="st1" width="159.2" height="4.8"/>
						
							<rect x="-7.6" y="46.1" transform="matrix(0.7071 -0.7071 0.7071 0.7071 -13.2009 65.1291)" class="st1" width="159.2" height="4.8"/>
						
							<rect x="-21.9" y="46.1" transform="matrix(0.7071 -0.7071 0.7071 0.7071 -17.3951 55.0152)" class="st1" width="159.2" height="4.8"/>
						
							<rect x="-36.2" y="46.1" transform="matrix(0.7071 -0.7071 0.7071 0.7071 -21.5894 44.9013)" class="st1" width="159.2" height="4.8"/>
						
							<rect x="-50.5" y="46.1" transform="matrix(0.7071 -0.7071 0.7071 0.7071 -25.7836 34.7873)" class="st1" width="159.2" height="4.8"/>
						
							<rect x="-64.8" y="46.1" transform="matrix(0.7071 -0.7071 0.7071 0.7071 -29.9778 24.6733)" class="st1" width="159.2" height="4.8"/>
						
							<rect x="-79.1" y="46.1" transform="matrix(0.7071 -0.7071 0.7071 0.7071 -34.172 14.5594)" class="st1" width="159.2" height="4.8"/>
						
							<rect x="-93.3" y="46.1" transform="matrix(0.7071 -0.7071 0.7071 0.7071 -38.2955 4.5333)" class="st1" width="159.2" height="4.8"/>
						
							<rect x="-107.6" y="46.1" transform="matrix(0.7071 -0.7071 0.7071 0.7071 -42.4898 -5.5807)" class="st1" width="159.2" height="4.8"/>
						
							<rect x="-121.9" y="46.1" transform="matrix(0.7071 -0.7071 0.7071 0.7071 -46.6839 -15.6946)" class="st1" width="159.2" height="4.8"/>
					</g>
				</g>
			</g>
		</g>
	</g>
	<g>
		<g>
			<path class="st2" d="M60,10.1H40c-16.4,0-29.9,10.8-29.9,23.9v52.6c0,1.8,1.8,3.2,4,3.2h71.8c2.2,0,4-1.4,4-3.2V34.1
				C89.9,20.9,76.4,10.1,60,10.1L60,10.1z"/>
		</g>
	</g>
</g>
</svg>
