<?xml version="1.0" encoding="utf-8"?>
<!-- Generator: Adobe Illustrator 20.1.0, SVG Export Plug-In . SVG Version: 6.00 Build 0)  -->
<svg version="1.1" id="レイヤー_1" xmlns="http://www.w3.org/2000/svg" xmlns:xlink="http://www.w3.org/1999/xlink" x="0px"
	 y="0px" viewBox="0 0 100 100" style="enable-background:new 0 0 100 100;" xml:space="preserve">
<style type="text/css">
	.st0{clip-path:url(#SVGID_2_);}
	.st1{fill:#AFAFAF;}
	.st2{fill:#99999A;}
	.st3{clip-path:url(#SVGID_4_);}
	.st4{fill:#2881B6;}
</style>
<g>
	<g>
		<g>
			<g>
				<g>
					<defs>
						<rect id="SVGID_1_" x="200" width="100" height="100"/>
					</defs>
					<clipPath id="SVGID_2_">
						<use xlink:href="#SVGID_1_"  style="overflow:visible;"/>
					</clipPath>
					<g class="st0">
						
							<rect x="263.8" y="46.1" transform="matrix(0.7071 -0.7071 0.7071 0.7071 66.2781 257.0325)" class="st1" width="159.2" height="4.8"/>
						
							<rect x="249.5" y="46.1" transform="matrix(0.7071 -0.7071 0.7071 0.7071 62.0839 246.9185)" class="st1" width="159.2" height="4.8"/>
						
							<rect x="235.2" y="46.1" transform="matrix(0.7071 -0.7071 0.7071 0.7071 57.8897 236.8046)" class="st1" width="159.2" height="4.8"/>
						
							<rect x="220.9" y="46.1" transform="matrix(0.7071 -0.7071 0.7071 0.7071 53.6954 226.6906)" class="st1" width="159.2" height="4.8"/>
						
							<rect x="206.7" y="46.1" transform="matrix(0.7071 -0.7071 0.7071 0.7071 49.5719 216.6645)" class="st1" width="159.2" height="4.8"/>
						
							<rect x="192.4" y="46.1" transform="matrix(0.7071 -0.7071 0.7071 0.7071 45.3777 206.5505)" class="st1" width="159.2" height="4.8"/>
						
							<rect x="178.1" y="46.1" transform="matrix(0.7071 -0.7071 0.7071 0.7071 41.1835 196.4366)" class="st1" width="159.2" height="4.8"/>
						
							<rect x="163.8" y="46.1" transform="matrix(0.7071 -0.7071 0.7071 0.7071 36.9893 186.3227)" class="st1" width="159.2" height="4.8"/>
						
							<rect x="149.5" y="46.1" transform="matrix(0.7071 -0.7071 0.7071 0.7071 32.7951 176.2086)" class="st1" width="159.2" height="4.8"/>
						
							<rect x="135.2" y="46.1" transform="matrix(0.7071 -0.7071 0.7071 0.7071 28.6008 166.0947)" class="st1" width="159.2" height="4.8"/>
						
							<rect x="120.9" y="46.1" transform="matrix(0.7071 -0.7071 0.7071 0.7071 24.4066 155.9807)" class="st1" width="159.2" height="4.8"/>
						
							<rect x="106.7" y="46.1" transform="matrix(0.7071 -0.7071 0.7071 0.7071 20.2831 145.9546)" class="st1" width="159.2" height="4.8"/>
						
							<rect x="92.4" y="46.1" transform="matrix(0.7071 -0.7071 0.7071 0.7071 16.0889 135.8407)" class="st1" width="159.2" height="4.8"/>
						
							<rect x="78.1" y="46.1" transform="matrix(0.7071 -0.7071 0.7071 0.7071 11.8947 125.7267)" class="st1" width="159.2" height="4.8"/>
					</g>
				</g>
			</g>
		</g>
	</g>
	<g>
		<g>
			<path class="st2" d="M260,10.1h-20c-16.4,0-29.9,10.8-29.9,23.9v52.6c0,1.8,1.8,3.2,4,3.2h71.8c2.2,0,4-1.4,4-3.2V34.1
				C289.9,20.9,276.4,10.1,260,10.1L260,10.1z"/>
		</g>
	</g>
</g>
<g>
	<g>
		<g>
			<g>
				<g>
					<defs>
						<rect id="SVGID_3_" x="0" width="100" height="100"/>
					</defs>
					<clipPath id="SVGID_4_">
						<use xlink:href="#SVGID_3_"  style="overflow:visible;"/>
					</clipPath>
					<g class="st3">
						
							<rect x="63.8" y="46.1" transform="matrix(0.7071 -0.7071 0.7071 0.7071 7.6997 115.6114)" class="st1" width="159.2" height="4.8"/>
						
							<rect x="49.5" y="46.1" transform="matrix(0.7071 -0.7071 0.7071 0.7071 3.5055 105.4974)" class="st1" width="159.2" height="4.8"/>
						
							<rect x="35.2" y="46.1" transform="matrix(0.7071 -0.7071 0.7071 0.7071 -0.6887 95.3835)" class="st1" width="159.2" height="4.8"/>
						
							<rect x="20.9" y="46.1" transform="matrix(0.7071 -0.7071 0.7071 0.7071 -4.8829 85.2695)" class="st1" width="159.2" height="4.8"/>
						
							<rect x="6.7" y="46.1" transform="matrix(0.7071 -0.7071 0.7071 0.7071 -9.0064 75.2434)" class="st1" width="159.2" height="4.8"/>
						
							<rect x="-7.6" y="46.1" transform="matrix(0.7071 -0.7071 0.7071 0.7071 -13.2007 65.1295)" class="st1" width="159.2" height="4.8"/>
						
							<rect x="-21.9" y="46.1" transform="matrix(0.7071 -0.7071 0.7071 0.7071 -17.3948 55.0155)" class="st1" width="159.2" height="4.8"/>
						
							<rect x="-36.2" y="46.1" transform="matrix(0.7071 -0.7071 0.7071 0.7071 -21.5891 44.9015)" class="st1" width="159.2" height="4.8"/>
						
							<rect x="-50.5" y="46.1" transform="matrix(0.7071 -0.7071 0.7071 0.7071 -25.7834 34.7875)" class="st1" width="159.2" height="4.8"/>
						
							<rect x="-64.8" y="46.1" transform="matrix(0.7071 -0.7071 0.7071 0.7071 -29.9775 24.6736)" class="st1" width="159.2" height="4.8"/>
						
							<rect x="-79.1" y="46.1" transform="matrix(0.7071 -0.7071 0.7071 0.7071 -34.1717 14.5596)" class="st1" width="159.2" height="4.8"/>
						
							<rect x="-93.3" y="46.1" transform="matrix(0.7071 -0.7071 0.7071 0.7071 -38.2953 4.5334)" class="st1" width="159.2" height="4.8"/>
						
							<rect x="-107.6" y="46.1" transform="matrix(0.7071 -0.7071 0.7071 0.7071 -42.4895 -5.5805)" class="st1" width="159.2" height="4.8"/>
						
							<rect x="-121.9" y="46.1" transform="matrix(0.7071 -0.7071 0.7071 0.7071 -46.6837 -15.6945)" class="st1" width="159.2" height="4.8"/>
					</g>
				</g>
			</g>
		</g>
	</g>
	<g>
		<g>
			<path class="st4" d="M60,10.1H40c-16.4,0-29.9,10.8-29.9,23.9v52.6c0,1.8,1.8,3.2,4,3.2h71.8c2.2,0,4-1.4,4-3.2V34.1
				C89.9,20.9,76.4,10.1,60,10.1L60,10.1z"/>
		</g>
	</g>
</g>
</svg>
