<?xml version="1.0" encoding="utf-8"?>
<!-- Generator: Adobe Illustrator 20.1.0, SVG Export Plug-In . SVG Version: 6.00 Build 0)  -->
<svg version="1.1" id="レイヤー_1" xmlns="http://www.w3.org/2000/svg" xmlns:xlink="http://www.w3.org/1999/xlink" x="0px"
	 y="0px" viewBox="0 0 80 100" style="enable-background:new 0 0 80 100;" xml:space="preserve">
<style type="text/css">
	.st0{fill:#99999A;}
</style>
<g>
	<path class="st0" d="M74,6v88H6V6H74 M74,0H6C2.7,0,0,2.7,0,6v88c0,3.3,2.7,6,6,6h68c3.3,0,6-2.7,6-6V6C80,2.7,77.3,0,74,0L74,0z"
		/>
	<g>
		<g>
			<g>
				<polygon class="st0" points="54,65.1 49.1,52.3 35.6,52.3 35.6,37 37,37 37,50.9 50,50.9 54.8,63.3 59,61.7 59.5,63 				"/>
			</g>
			<g>
				<polygon class="st0" points="53.4,66.6 48.3,53.4 34.5,53.4 34.5,35.8 38.2,35.8 38.2,49.7 50.8,49.7 55.5,61.8 59.7,60.2 
					61,63.7 				"/>
			</g>
		</g>
		<g>
			<g>
				<rect x="36.2" y="44.9" class="st0" width="11.4" height="1.4"/>
			</g>
			<g>
				<rect x="35.1" y="43.7" class="st0" width="13.6" height="3.7"/>
			</g>
		</g>
		<g>
			<g>
				<circle class="st0" cx="38.5" cy="35.1" r="3.8"/>
			</g>
			<g>
				<path class="st0" d="M38.5,40c-2.7,0-5-2.2-5-5s2.2-5,5-5c2.7,0,5,2.2,5,5S41.2,40,38.5,40z M38.5,32.4c-1.5,0-2.7,1.2-2.7,2.7
					s1.2,2.7,2.7,2.7s2.7-1.2,2.7-2.7C41.2,33.6,40,32.4,38.5,32.4z"/>
			</g>
		</g>
		<g>
			<g>
				<path class="st0" d="M36.8,68.8c-7,0-12.7-5.7-12.7-12.7c0-5.2,3.3-10,8.1-11.8l0.5,1.3c-4.3,1.7-7.2,5.9-7.2,10.5
					c0,6.2,5,11.3,11.3,11.3c3.9,0,7.5-2,9.6-5.4l1.2,0.7C45.3,66.5,41.3,68.8,36.8,68.8z"/>
			</g>
			<g>
				<path class="st0" d="M36.8,69.9c-7.6,0-13.8-6.2-13.8-13.8c0-5.7,3.6-10.9,8.9-12.9l1.1-0.4l1.3,3.4l-1.1,0.4
					c-3.9,1.5-6.5,5.3-6.5,9.4c0,5.6,4.5,10.1,10.1,10.1c3.5,0,6.8-1.8,8.6-4.8l0.6-1l3.1,1.9l-0.6,1C46.1,67.5,41.7,69.9,36.8,69.9
					z"/>
			</g>
		</g>
	</g>
</g>
</svg>
