<?xml version="1.0" encoding="utf-8"?>
<!-- Generator: Adobe Illustrator 20.1.0, SVG Export Plug-In . SVG Version: 6.00 Build 0)  -->
<svg version="1.1" id="レイヤー_1" xmlns="http://www.w3.org/2000/svg" xmlns:xlink="http://www.w3.org/1999/xlink" x="0px"
	 y="0px" viewBox="0 0 1820.7 162.4" style="enable-background:new 0 0 1820.7 162.4;" xml:space="preserve">
<style type="text/css">
	.st0{fill:#9C9C9C;}
</style>
<g>
	<g>
		<path class="st0" d="M802.4,45.8c-5,0-10.2-1.2-15.6-3.7v-6.7h0.4c4.5,3.8,9.6,5.7,15.3,5.7c3.5,0,6.3-0.7,8.3-2.2s3-3.3,3-5.7
			c0-1.8-0.4-3.3-1.3-4.3c-0.8-1-2.3-1.9-4.4-2.4l-9.8-2c-3.7-0.8-6.4-2.1-8.3-4.1c-1.9-2-2.8-4.6-2.8-7.8c0-3.6,1.5-6.6,4.4-9
			c2.9-2.4,6.7-3.5,11.5-3.5c4.9,0,9.8,1.1,14.8,3.3v6.4h-0.4c-4.1-3.4-8.8-5.1-14.4-5.1c-3,0-5.5,0.7-7.4,2s-2.8,3.1-2.8,5.3
			c0,3.7,2.1,6,6.4,7.1c2.5,0.4,5.2,1,8.2,1.7s5.2,1.4,6.5,2.1s2.4,1.6,3.2,2.5s1.4,2,1.8,3.2c0.4,1.2,0.6,2.5,0.6,4
			c0,3.8-1.6,7-4.7,9.5S807.5,45.8,802.4,45.8z"/>
		<path class="st0" d="M848.9,45.8c-6.6,0-11.8-2-15.5-6s-5.6-9.6-5.6-16.8c0-7.1,1.9-12.7,5.7-16.8c3.8-4.1,9-6.1,15.5-6.1
			c4.7,0,9.5,1.3,14.6,4v6.4h-0.4c-4.6-3.8-9.4-5.8-14.5-5.8c-4.6,0-8.3,1.6-11,4.8c-2.7,3.2-4.1,7.7-4.1,13.5
			c0,5.7,1.4,10.2,4.1,13.4c2.8,3.2,6.4,4.8,11,4.8c2.5,0,4.8-0.4,7.1-1.2s4.7-2.3,7.4-4.6h0.4v6.4c-3.8,1.8-6.7,2.9-8.7,3.3
			S850.8,45.8,848.9,45.8z"/>
		<path class="st0" d="M910.5,45h-7.1l-14.5-17.8h-9V45h-5.4V0.9H887c5.9,0,10.1,1.1,12.6,3.3c2.5,2.2,3.8,5.1,3.8,8.7
			c0,6.1-3,10.4-8.9,12.8L910.5,45z M879.9,5.5v17.3h6.4c4,0,6.9-0.8,8.7-2.5s2.6-4,2.6-7.2c0-5.1-3.4-7.6-10.3-7.6H879.9z"/>
		<path class="st0" d="M947.7,45H919V0.9h28.7v4.7h-23.3v12.9h22.7v4.7h-22.7v17.1h23.3V45z"/>
		<path class="st0" d="M988.4,45h-28.7V0.9h28.7v4.7h-23.3v12.9h22.7v4.7h-22.7v17.1h23.3V45z"/>
		<path class="st0" d="M1034,45h-6.3l-22.2-38.3V45h-5.1V0.9h7.6l21,36.2V0.9h5.1V45z"/>
	</g>
</g>
<path class="st0" d="M1818.2,162.3c-0.8-0.2-78.6-19.4-228.9-38.3c-138.8-17.5-369.5-38.3-680.5-38.3
	c-311.2,0-541.1,20.8-679.2,38.3C80.1,143,3.3,162.1,2.5,162.3l-2.4-9.7c0.8-0.2,78.2-19.5,228.3-38.5
	c138.4-17.5,368.8-38.4,680.4-38.4c311.7,0,542.9,20.9,682,38.4c150.9,19,229.1,38.3,229.8,38.5L1818.2,162.3z"/>
</svg>
