<?xml version="1.0" encoding="utf-8"?>
<!-- Generator: Adobe Illustrator 19.2.1, SVG Export Plug-In . SVG Version: 6.00 Build 0)  -->
<svg version="1.1" id="レイヤー_1" xmlns="http://www.w3.org/2000/svg" xmlns:xlink="http://www.w3.org/1999/xlink" x="0px"
	 y="0px" viewBox="0 0 1608 146.7" style="enable-background:new 0 0 1608 146.7;" xml:space="preserve">
<style type="text/css">
	.st0{fill:#9D9C9C;}
</style>
<g>
	<g>
		<path class="st0" d="M696.1,46.4c-5,0-10.2-1.2-15.6-3.7v-6.7h0.4c4.5,3.8,9.6,5.7,15.3,5.7c3.5,0,6.3-0.7,8.3-2.2
			c2-1.4,3-3.3,3-5.7c0-1.8-0.4-3.3-1.3-4.3c-0.8-1-2.3-1.9-4.4-2.4l-9.8-2c-3.7-0.8-6.4-2.1-8.3-4.1c-1.9-2-2.8-4.6-2.8-7.8
			c0-3.6,1.5-6.6,4.4-9c2.9-2.4,6.7-3.5,11.5-3.5c4.9,0,9.8,1.1,14.8,3.3v6.4h-0.4c-4.1-3.4-8.8-5.1-14.4-5.1c-3,0-5.5,0.7-7.4,2
			c-1.9,1.3-2.8,3.1-2.8,5.3c0,3.7,2.1,6,6.4,7.1c2.5,0.5,5.2,1,8.2,1.7c3,0.7,5.2,1.4,6.5,2.1c1.3,0.7,2.4,1.6,3.2,2.5
			c0.8,0.9,1.4,2,1.8,3.2c0.4,1.2,0.6,2.5,0.6,4c0,3.8-1.6,7-4.7,9.5C705.3,45.2,701.2,46.4,696.1,46.4"/>
		<path class="st0" d="M742.7,46.4c-6.6,0-11.8-2-15.5-6c-3.7-4-5.6-9.6-5.6-16.8c0-7.1,1.9-12.7,5.7-16.8c3.8-4.1,8.9-6.1,15.5-6.1
			c4.7,0,9.5,1.3,14.6,4v6.4h-0.4c-4.6-3.8-9.4-5.8-14.5-5.8c-4.6,0-8.3,1.6-11,4.8c-2.7,3.2-4.1,7.7-4.1,13.5
			c0,5.7,1.4,10.2,4.1,13.4c2.8,3.2,6.4,4.8,11,4.8c2.5,0,4.8-0.4,7.1-1.2c2.2-0.8,4.7-2.3,7.4-4.6h0.4v6.4
			c-3.8,1.8-6.7,2.9-8.7,3.3C746.5,46.2,744.5,46.4,742.7,46.4"/>
		<path class="st0" d="M804.3,45.6h-7.1l-14.5-17.8h-9v17.8h-5.4V1.5h12.5c5.9,0,10.1,1.1,12.6,3.3c2.5,2.2,3.8,5.1,3.8,8.7
			c0,6.1-3,10.4-8.9,12.8L804.3,45.6z M773.6,6.1v17.3h6.4c4,0,6.9-0.8,8.7-2.5c1.8-1.6,2.6-4,2.6-7.2c0-5.1-3.4-7.6-10.3-7.6H773.6
			z"/>
		<polygon class="st0" points="841.5,45.6 812.7,45.6 812.7,1.5 841.5,1.5 841.5,6.2 818.2,6.2 818.2,19.1 840.9,19.1 840.9,23.8 
			818.2,23.8 818.2,40.9 841.5,40.9 		"/>
		<polygon class="st0" points="882.1,45.6 853.4,45.6 853.4,1.5 882.1,1.5 882.1,6.2 858.8,6.2 858.8,19.1 881.5,19.1 881.5,23.8 
			858.8,23.8 858.8,40.9 882.1,40.9 		"/>
		<polygon class="st0" points="927.7,45.6 921.4,45.6 899.1,7.3 899.1,45.6 894.1,45.6 894.1,1.5 901.6,1.5 922.6,37.7 922.6,1.5 
			927.7,1.5 		"/>
	</g>
</g>
<g>
	<path class="st0" d="M804.1,76.4c-269.2,0-539.7,20.6-804,61.1l1.5,9.9c263.8-40.5,533.7-61,802.5-61c268.7,0,538.7,20.5,802.5,61
		l1.5-9.9C1343.8,96.9,1073.3,76.4,804.1,76.4z"/>
</g>
</svg>
