<?xml version="1.0" encoding="utf-8"?>
<!-- Generator: Adobe Illustrator 19.2.1, SVG Export Plug-In . SVG Version: 6.00 Build 0)  -->
<svg version="1.1" id="レイヤー_1" xmlns="http://www.w3.org/2000/svg" xmlns:xlink="http://www.w3.org/1999/xlink" x="0px"
	 y="0px" viewBox="0 0 892 104.3" style="enable-background:new 0 0 892 104.3;" xml:space="preserve">
<style type="text/css">
	.st0{fill:#9D9C9C;}
</style>
<g>
	<g>
		<g>
			<g>
				<path class="st0" d="M338.1,46.8c-5,0-10.2-1.2-15.6-3.7v-6.7h0.4c4.5,3.8,9.6,5.7,15.3,5.7c3.5,0,6.3-0.7,8.3-2.2
					c2-1.4,3-3.3,3-5.7c0-1.8-0.4-3.3-1.3-4.3c-0.8-1-2.3-1.9-4.4-2.4l-9.8-2c-3.7-0.8-6.4-2.1-8.3-4.1c-1.9-2-2.8-4.6-2.8-7.8
					c0-3.6,1.5-6.6,4.4-9c2.9-2.4,6.7-3.5,11.5-3.5c4.9,0,9.8,1.1,14.8,3.3v6.4h-0.4c-4.1-3.4-8.8-5.1-14.4-5.1c-3,0-5.5,0.7-7.4,2
					c-1.9,1.3-2.8,3.1-2.8,5.3c0,3.7,2.1,6,6.4,7.1c2.5,0.5,5.2,1,8.2,1.7c3,0.7,5.2,1.4,6.5,2.1c1.3,0.7,2.4,1.6,3.2,2.5
					c0.8,0.9,1.4,2,1.8,3.2c0.4,1.2,0.6,2.5,0.6,4c0,3.8-1.6,7-4.7,9.5C347.3,45.5,343.2,46.8,338.1,46.8"/>
				<path class="st0" d="M384.7,46.8c-6.6,0-11.8-2-15.5-6c-3.7-4-5.6-9.6-5.6-16.8c0-7.1,1.9-12.7,5.7-16.8
					C373,3.1,378.2,1,384.7,1c4.7,0,9.5,1.3,14.6,4v6.4h-0.4c-4.6-3.8-9.4-5.8-14.5-5.8c-4.6,0-8.3,1.6-11,4.8
					c-2.7,3.2-4.1,7.7-4.1,13.5c0,5.7,1.4,10.2,4.1,13.4c2.8,3.2,6.4,4.8,11,4.8c2.5,0,4.8-0.4,7.1-1.2c2.2-0.8,4.7-2.3,7.4-4.6h0.4
					v6.4c-3.8,1.8-6.7,2.9-8.7,3.3C388.5,46.5,386.5,46.8,384.7,46.8"/>
				<path class="st0" d="M446.3,46h-7.1l-14.5-17.8h-9V46h-5.4V1.8h12.5c5.9,0,10.1,1.1,12.6,3.3s3.8,5.1,3.8,8.7
					c0,6.1-3,10.4-8.9,12.8L446.3,46z M415.6,6.4v17.3h6.4c4,0,6.9-0.8,8.7-2.5c1.8-1.6,2.6-4,2.6-7.2c0-5.1-3.4-7.6-10.3-7.6H415.6
					z"/>
				<polygon class="st0" points="483.5,46 454.7,46 454.7,1.8 483.5,1.8 483.5,6.6 460.2,6.6 460.2,19.4 482.9,19.4 482.9,24.2 
					460.2,24.2 460.2,41.2 483.5,41.2 				"/>
				<polygon class="st0" points="524.1,46 495.4,46 495.4,1.8 524.1,1.8 524.1,6.6 500.8,6.6 500.8,19.4 523.5,19.4 523.5,24.2 
					500.8,24.2 500.8,41.2 524.1,41.2 				"/>
				<polygon class="st0" points="569.7,46 563.4,46 541.1,7.6 541.1,46 536.1,46 536.1,1.8 543.6,1.8 564.6,38 564.6,1.8 569.7,1.8 
									"/>
			</g>
		</g>
	</g>
	<g>
		<path class="st0" d="M891.2,105.4C743.9,93,594.4,86.7,446.1,86.7c-148.3,0-297.8,6.3-445.2,18.7l-0.8-10
			c147.6-12.4,297.4-18.7,446-18.7c148.6,0,298.4,6.3,446,18.7L891.2,105.4z"/>
	</g>
</g>
</svg>
