<?xml version="1.0" encoding="utf-8"?>
<!-- Generator: Adobe Illustrator 20.1.0, SVG Export Plug-In . SVG Version: 6.00 Build 0)  -->
<svg version="1.1" id="レイヤー_1" xmlns="http://www.w3.org/2000/svg" xmlns:xlink="http://www.w3.org/1999/xlink" x="0px"
	 y="0px" viewBox="0 0 2300 414.8" style="enable-background:new 0 0 2300 414.8;" xml:space="preserve">
<style type="text/css">
	.st0{fill:#9D9D9D;}
	.st1{enable-background:new    ;}
	.st2{fill:#9C9C9C;}
</style>
<path class="st0" d="M2294.1,413.8c-1-0.4-99-36-288.5-71.2c-111.3-20.7-231.9-37.1-358.4-48.9c-158.2-14.8-326.1-22.2-499.2-22.2
	c-173.1,0-340.8,7.5-498.5,22.2c-126.2,11.8-246.3,28.3-357,48.9C104,377.8,6.9,413.4,5.9,413.8L2,403.3c1-0.4,98.6-36.3,287.9-71.6
	c111.1-20.7,231.6-37.3,358.1-49.1c158.2-14.8,326.4-22.3,499.9-22.3c173.5,0,341.9,7.5,500.5,22.3
	c126.9,11.9,247.9,28.4,359.5,49.1c190.3,35.4,288.9,71.2,289.9,71.6L2294.1,413.8z"/>
<g class="st1">
	<path class="st0" d="M1043.5,46.1c-5,0-10.2-1.2-15.6-3.7v-6.7h0.4c4.5,3.8,9.6,5.7,15.3,5.7c3.5,0,6.3-0.7,8.3-2.2
		c2-1.4,3-3.3,3-5.7c0-1.8-0.4-3.3-1.3-4.3s-2.3-1.9-4.4-2.4l-9.8-2c-3.7-0.8-6.4-2.1-8.3-4.1c-1.9-2-2.8-4.6-2.8-7.8
		c0-3.6,1.5-6.6,4.4-9s6.7-3.5,11.5-3.5c4.9,0,9.8,1.1,14.8,3.3V10h-0.4c-4.1-3.4-8.8-5.1-14.4-5.1c-3,0-5.5,0.7-7.4,2
		c-1.9,1.3-2.8,3.1-2.8,5.3c0,3.7,2.1,6,6.4,7.1c2.5,0.4,5.2,1,8.2,1.7s5.2,1.4,6.5,2.1c1.3,0.7,2.4,1.6,3.2,2.5
		c0.8,0.9,1.4,2,1.8,3.2c0.4,1.2,0.6,2.5,0.6,4c0,3.8-1.6,7-4.7,9.5S1048.6,46.1,1043.5,46.1z"/>
	<path class="st0" d="M1089.5,46.1c-6.6,0-11.8-2-15.5-6c-3.7-4-5.6-9.6-5.6-16.8c0-7.1,1.9-12.7,5.7-16.8c3.8-4.1,9-6.1,15.5-6.1
		c4.7,0,9.5,1.3,14.6,4v6.4h-0.4c-4.6-3.8-9.4-5.8-14.5-5.8c-4.6,0-8.3,1.6-11,4.8c-2.7,3.2-4.1,7.7-4.1,13.5
		c0,5.7,1.4,10.2,4.1,13.4c2.8,3.2,6.4,4.8,11,4.8c2.5,0,4.8-0.4,7.1-1.2c2.2-0.8,4.7-2.3,7.4-4.6h0.4v6.4c-3.8,1.8-6.7,2.9-8.7,3.3
		S1091.3,46.1,1089.5,46.1z"/>
	<path class="st0" d="M1150.5,45.3h-7.1l-14.5-17.8h-9v17.8h-5.4V1.1h12.5c5.9,0,10.1,1.1,12.6,3.3c2.5,2.2,3.8,5.1,3.8,8.7
		c0,6.1-3,10.4-8.9,12.8L1150.5,45.3z M1119.8,5.8v17.3h6.4c4,0,6.9-0.8,8.7-2.5s2.6-4,2.6-7.2c0-5.1-3.4-7.6-10.3-7.6H1119.8z"/>
	<path class="st0" d="M1187.1,45.3h-28.7V1.1h28.7v4.7h-23.3v12.9h22.7v4.7h-22.7v17.1h23.3V45.3z"/>
	<path class="st0" d="M1227.1,45.3h-28.7V1.1h28.7v4.7h-23.3v12.9h22.7v4.7h-22.7v17.1h23.3V45.3z"/>
	<path class="st0" d="M1272.1,45.3h-6.3L1243.5,7v38.3h-5.1V1.1h7.6l21,36.2V1.1h5.1V45.3z"/>
</g>
<g>
	<g>
		<g>
			<g>
				<g>
					<g>
						<path class="st2" d="M919.3,79.2h41c5,0,9.3,0.7,12.9,2.2c3.6,1.4,6.5,3.6,8.9,6.4c1.6,1.9,2.8,4.1,3.8,6.7
							c0.9,2.5,1.4,5.4,1.4,8.7l0,0.3c0,5.5-1.2,10-3.5,13.4c-2.3,3.4-5.3,6-8.8,7.8c4.9,1.9,8.8,4.6,11.6,8.2
							c2.9,3.6,4.3,8.6,4.3,15l0,0.3c0,8.3-2.7,14.7-8,19.3c-5.3,4.6-12.8,6.9-22.4,6.9h-41.3L919.3,79.2z M958,153.3
							c3.4,0,6.1-0.7,7.9-2.2c1.8-1.5,2.8-3.7,2.8-6.5v-0.3c0-2.6-0.9-4.7-2.6-6.3c-1.8-1.5-4.5-2.3-8.2-2.3h-16.9l0,17.6H958z
							 M954.8,117.2c3.4,0,6-0.7,7.8-2c1.8-1.4,2.7-3.4,2.7-6.3l0-0.3c0-2.6-0.8-4.7-2.5-6.1c-1.7-1.4-4.2-2.1-7.6-2.1h-14.4l0,16.7
							H954.8z"/>
						<path class="st2" d="M1037.9,79.2h64.3l0,22.5h-42.4l0,14.4h38.4l0,20.8h-38.4l0,15.1h43l0,22.5h-64.9L1037.9,79.2z"/>
						<path class="st2" d="M1182.3,176.1c-7.2,0-14-1.3-20.4-4c-6.4-2.7-12.1-6.6-17.1-11.9l12.4-17.6c8,7.6,16.6,11.4,25.9,11.4
							c3,0,5.2-0.6,6.8-1.7c1.6-1.1,2.4-2.7,2.4-4.8v-0.3c0-1-0.2-1.9-0.6-2.7c-0.4-0.8-1.1-1.5-2.1-2.2c-1-0.7-2.4-1.4-4.1-2.1
							c-1.7-0.7-3.9-1.4-6.7-2.1c-4.3-1.2-8.2-2.5-11.9-3.9c-3.7-1.4-6.8-3.2-9.5-5.4c-2.7-2.2-4.8-5-6.4-8.3
							c-1.6-3.3-2.3-7.4-2.3-12.3V108c0-4.4,0.7-8.5,2.1-12.2c1.4-3.7,3.5-6.9,6.2-9.6c2.7-2.7,6-4.8,9.8-6.3
							c3.8-1.5,8.1-2.2,12.9-2.2c6.9,0,13,1.1,18.4,3.2c5.4,2.1,10.2,5.3,14.6,9.5l-11.1,18.7c-3.7-3.1-7.4-5.4-11.3-7
							c-3.9-1.6-7.6-2.4-11.2-2.4c-2.7,0-4.7,0.6-6,1.8c-1.3,1.2-2,2.6-2,4.3v0.3c0,1.1,0.2,2,0.6,2.9c0.4,0.8,1.1,1.6,2.2,2.2
							c1,0.7,2.4,1.4,4.2,2c1.8,0.7,4.1,1.4,6.8,2.1c4.6,1.2,8.7,2.6,12.4,4.1c3.7,1.6,6.8,3.5,9.4,5.8c2.6,2.3,4.6,5,5.9,8.2
							c1.4,3.2,2,7,2,11.5v0.3c0,4.9-0.8,9.2-2.4,13c-1.6,3.8-3.8,7-6.6,9.7c-2.8,2.7-6.2,4.7-10.2,6.1
							C1191.6,175.4,1187.1,176.1,1182.3,176.1z"/>
						<path class="st2" d="M1281.9,102.4h-24l0-23.1h70.2l0,23.1h-24l-0.1,72.1h-22.2L1281.9,102.4z"/>
						<path class="st2" d="M1375.1,79.2h22.3l-0.2,95.3h-22.3L1375.1,79.2z"/>
						<g>
							<polygon class="st2" points="1497.9,78.5 1476.5,78.5 1442.2,174.5 1514.6,125.8 							"/>
							<polygon class="st2" points="1442.2,174.5 1531.8,174.5 1522.1,147.1 							"/>
						</g>
					</g>
				</g>
			</g>
		</g>
		<g>
			<rect x="766.1" y="157.9" class="st2" width="97.9" height="16.6"/>
			<rect x="766.1" y="118.3" class="st2" width="97.9" height="16.6"/>
			<rect x="766.1" y="78.6" class="st2" width="97.9" height="16.6"/>
		</g>
	</g>
	<g>
		<path class="st2" d="M766.3,200.2h11c2.8,0,5,0.7,6.4,2.2c1.1,1.1,1.6,2.5,1.6,4.1v0.1c0,0.8-0.1,1.4-0.3,2
			c-0.2,0.6-0.5,1.1-0.8,1.5c-0.3,0.4-0.7,0.8-1.1,1.1c-0.4,0.3-0.9,0.6-1.3,0.8c0.7,0.3,1.4,0.6,2,0.9c0.6,0.3,1.1,0.7,1.5,1.2
			c0.4,0.5,0.8,1,1,1.7c0.2,0.6,0.3,1.4,0.3,2.2v0.1c0,1.1-0.2,2.1-0.6,2.9c-0.4,0.8-1,1.6-1.8,2.1c-0.8,0.6-1.8,1-2.9,1.3
			c-1.1,0.3-2.4,0.4-3.7,0.4h-11.4V200.2z M776.4,210.6c1.4,0,2.5-0.3,3.4-0.8c0.8-0.6,1.3-1.4,1.3-2.5v-0.1c0-1-0.4-1.8-1.1-2.3
			s-1.8-0.8-3.2-0.8h-6.2v6.6H776.4z M777.7,221c1.5,0,2.6-0.3,3.5-0.8c0.8-0.6,1.3-1.4,1.3-2.5v-0.1c0-1.1-0.4-1.9-1.2-2.4
			c-0.8-0.6-2.1-0.9-3.8-0.9h-6.8v6.8H777.7z"/>
		<path class="st2" d="M801.8,203.6h15.6v3.4h-12v5.5h10.6v3.4h-10.6v5.7h12.1v3.4h-15.8V203.6z"/>
		<path class="st2" d="M838.6,225.1c-1.6,0-3.2-0.3-4.7-0.8c-1.5-0.6-2.9-1.4-4.1-2.6l2.2-2.7c1,0.9,2.1,1.6,3.1,2
			c1,0.5,2.2,0.7,3.6,0.7c1.1,0,2.1-0.2,2.7-0.7c0.7-0.5,1-1.1,1-1.9v-0.1c0-0.4-0.1-0.7-0.2-1c-0.1-0.3-0.4-0.6-0.7-0.8
			c-0.4-0.3-0.8-0.5-1.5-0.7c-0.6-0.2-1.4-0.4-2.4-0.7c-1.1-0.3-2.1-0.6-3-0.9c-0.9-0.3-1.6-0.7-2.2-1.2c-0.6-0.5-1-1.1-1.4-1.7
			c-0.3-0.7-0.5-1.5-0.5-2.5v-0.1c0-0.9,0.2-1.7,0.5-2.5c0.4-0.8,0.9-1.4,1.5-1.9c0.6-0.5,1.4-1,2.3-1.3c0.9-0.3,1.8-0.5,2.9-0.5
			c1.6,0,2.9,0.2,4.2,0.7c1.2,0.5,2.4,1.1,3.5,2l-2,2.8c-1-0.7-1.9-1.2-2.9-1.6c-0.9-0.4-1.9-0.6-2.9-0.6c-1.1,0-1.9,0.2-2.5,0.7
			c-0.6,0.5-0.9,1.1-0.9,1.8v0.1c0,0.4,0.1,0.8,0.2,1.1c0.1,0.3,0.4,0.6,0.8,0.8c0.4,0.3,0.9,0.5,1.5,0.7c0.7,0.2,1.5,0.5,2.5,0.7
			c1.1,0.3,2.1,0.6,3,0.9c0.9,0.3,1.6,0.8,2.1,1.3c0.6,0.5,1,1.1,1.3,1.7c0.3,0.7,0.4,1.4,0.4,2.3v0.1c0,1-0.2,1.9-0.6,2.7
			c-0.4,0.8-0.9,1.5-1.5,2c-0.7,0.5-1.4,1-2.4,1.2C840.8,225,839.7,225.1,838.6,225.1z"/>
		<path class="st2" d="M864.9,207.1h-6.7v-3.5h17.1v3.5h-6.7v17.7h-3.7V207.1z"/>
		<path class="st2" d="M920.9,200.2h4.3v24.7h-4.3V200.2z"/>
		<path class="st2" d="M942,203.6h4l6.4,10l6.4-10h4v21.2h-3.7v-15.2l-6.7,10h-0.1l-6.6-9.9v15.1H942V203.6z"/>
		<path class="st2" d="M977.3,203.6h4l6.4,10l6.4-10h4v21.2h-3.7v-15.2l-6.7,10h-0.1l-6.6-9.9v15.1h-3.7V203.6z"/>
		<path class="st2" d="M1012.7,203.6h15.6v3.4h-12v5.5h10.6v3.4h-10.6v5.7h12.1v3.4h-15.8V203.6z"/>
		<path class="st2" d="M1042.1,203.6h9.4c1.3,0,2.5,0.2,3.5,0.6c1,0.4,1.9,0.9,2.6,1.6c0.6,0.6,1,1.3,1.3,2c0.3,0.8,0.5,1.6,0.5,2.5
			v0.1c0,0.9-0.1,1.7-0.4,2.3c-0.3,0.7-0.6,1.3-1,1.9c-0.4,0.5-1,1-1.6,1.4c-0.6,0.4-1.3,0.7-2,0.9l5.7,8h-4.4l-5.2-7.4h-0.1h-4.6
			v7.4h-3.7V203.6z M1051.2,214.1c1.3,0,2.4-0.3,3.2-1c0.8-0.6,1.2-1.5,1.2-2.6v-0.1c0-1.2-0.4-2-1.2-2.6c-0.8-0.6-1.8-0.9-3.2-0.9
			h-5.4v7.1H1051.2z"/>
		<path class="st2" d="M1080.5,225.1c-1.6,0-3.2-0.3-4.7-0.8c-1.5-0.6-2.9-1.4-4.1-2.6l2.2-2.7c1,0.9,2.1,1.6,3.1,2
			c1,0.5,2.2,0.7,3.6,0.7c1.1,0,2.1-0.2,2.7-0.7c0.7-0.5,1-1.1,1-1.9v-0.1c0-0.4-0.1-0.7-0.2-1c-0.1-0.3-0.4-0.6-0.7-0.8
			c-0.4-0.3-0.8-0.5-1.5-0.7c-0.6-0.2-1.4-0.4-2.4-0.7c-1.1-0.3-2.1-0.6-3-0.9c-0.9-0.3-1.6-0.7-2.2-1.2c-0.6-0.5-1-1.1-1.4-1.7
			c-0.3-0.7-0.5-1.5-0.5-2.5v-0.1c0-0.9,0.2-1.7,0.5-2.5c0.4-0.8,0.9-1.4,1.5-1.9c0.6-0.5,1.4-1,2.3-1.3c0.9-0.3,1.8-0.5,2.9-0.5
			c1.6,0,2.9,0.2,4.2,0.7c1.2,0.5,2.4,1.1,3.5,2l-2,2.8c-1-0.7-1.9-1.2-2.9-1.6c-0.9-0.4-1.9-0.6-2.9-0.6c-1.1,0-1.9,0.2-2.5,0.7
			c-0.6,0.5-0.9,1.1-0.9,1.8v0.1c0,0.4,0.1,0.8,0.2,1.1c0.1,0.3,0.4,0.6,0.8,0.8c0.4,0.3,0.9,0.5,1.5,0.7c0.7,0.2,1.5,0.5,2.5,0.7
			c1.1,0.3,2.1,0.6,3,0.9c0.9,0.3,1.6,0.8,2.1,1.3c0.6,0.5,1,1.1,1.3,1.7c0.3,0.7,0.4,1.4,0.4,2.3v0.1c0,1-0.2,1.9-0.6,2.7
			c-0.4,0.8-0.9,1.5-1.5,2c-0.7,0.5-1.4,1-2.4,1.2C1082.6,225,1081.6,225.1,1080.5,225.1z"/>
		<path class="st2" d="M1101.7,203.6h3.7v21.2h-3.7V203.6z"/>
		<path class="st2" d="M1118.4,203.6h4.1l6.4,16.3l6.3-16.3h4l-8.8,21.3h-3.3L1118.4,203.6z"/>
		<path class="st2" d="M1152,203.6h15.6v3.4h-12v5.5h10.6v3.4h-10.6v5.7h12.1v3.4H1152V203.6z"/>
		<path class="st2" d="M1222.4,200h4l10.8,24.8h-4.6l-2.5-6h-11.6l-2.5,6h-4.4L1222.4,200z M1228.6,215l-4.2-9.9l-4.2,9.9H1228.6z"
			/>
		<path class="st2" d="M1260.3,225.2c-1.4,0-2.6-0.2-3.7-0.6c-1.1-0.4-2.1-1-2.8-1.8c-0.8-0.8-1.4-1.8-1.8-2.9
			c-0.4-1.2-0.6-2.5-0.6-4v-12.2h3.7v12.1c0,2,0.5,3.5,1.4,4.5c1,1,2.3,1.5,3.9,1.5c1.7,0,3-0.5,3.9-1.5c1-1,1.4-2.5,1.4-4.4v-12.2
			h3.7v12c0,1.6-0.2,3-0.7,4.1c-0.4,1.2-1,2.2-1.8,3c-0.8,0.8-1.7,1.4-2.9,1.8C1262.9,225,1261.7,225.2,1260.3,225.2z"/>
		<path class="st2" d="M1283.6,203.6h7.9c1.7,0,3.2,0.3,4.5,0.8c1.4,0.5,2.6,1.3,3.6,2.2c1,1,1.8,2.1,2.3,3.3
			c0.5,1.3,0.8,2.7,0.8,4.2v0.1c0,1.5-0.3,2.9-0.8,4.2c-0.5,1.3-1.3,2.4-2.3,3.4c-1,1-2.2,1.7-3.6,2.2c-1.4,0.5-2.9,0.8-4.5,0.8
			h-7.9V203.6z M1291.5,221.5c1.1,0,2.1-0.2,3-0.5c0.9-0.4,1.7-0.9,2.3-1.5c0.6-0.6,1.1-1.4,1.5-2.3c0.3-0.9,0.5-1.8,0.5-2.9v-0.1
			c0-1-0.2-2-0.5-2.9c-0.4-0.9-0.8-1.7-1.5-2.3c-0.6-0.6-1.4-1.1-2.3-1.5c-0.9-0.4-1.9-0.5-3-0.5h-4.2v14.5H1291.5z"/>
		<path class="st2" d="M1316.6,203.6h3.7v21.2h-3.7V203.6z"/>
		<path class="st2" d="M1345.2,225.2c-1.6,0-3.1-0.3-4.5-0.9c-1.3-0.6-2.5-1.4-3.5-2.3c-1-1-1.7-2.1-2.3-3.5
			c-0.5-1.3-0.8-2.7-0.8-4.2v-0.1c0-1.5,0.3-2.9,0.8-4.2c0.5-1.3,1.3-2.5,2.3-3.5c1-1,2.2-1.8,3.5-2.4c1.3-0.6,2.8-0.9,4.5-0.9
			c1.6,0,3.1,0.3,4.5,0.9c1.3,0.6,2.5,1.4,3.5,2.3c1,1,1.7,2.1,2.3,3.5c0.5,1.3,0.8,2.7,0.8,4.2v0.1c0,1.5-0.3,2.9-0.8,4.2
			c-0.5,1.3-1.3,2.5-2.3,3.5c-1,1-2.2,1.8-3.5,2.4C1348.3,224.9,1346.8,225.2,1345.2,225.2z M1345.2,221.8c1,0,2-0.2,2.9-0.6
			c0.9-0.4,1.6-0.9,2.2-1.6c0.6-0.7,1.1-1.5,1.5-2.4c0.3-0.9,0.5-1.9,0.5-2.9v-0.1c0-1-0.2-2-0.5-2.9c-0.3-0.9-0.8-1.7-1.5-2.4
			c-0.6-0.7-1.4-1.2-2.3-1.6c-0.9-0.4-1.8-0.6-2.9-0.6c-1,0-2,0.2-2.9,0.6c-0.9,0.4-1.6,0.9-2.2,1.6c-0.6,0.7-1.1,1.5-1.5,2.4
			c-0.3,0.9-0.5,1.9-0.5,2.9v0.1c0,1,0.2,2,0.5,2.9c0.4,0.9,0.8,1.7,1.5,2.4c0.6,0.7,1.4,1.2,2.3,1.6
			C1343.2,221.6,1344.2,221.8,1345.2,221.8z"/>
		<path class="st2" d="M1368.2,200.2h4.8l7.4,19l7.4-19h4.7l-10.2,24.8h-3.8L1368.2,200.2z"/>
		<path class="st2" d="M1407.1,203.6h3.7v21.2h-3.7V203.6z"/>
		<path class="st2" d="M1433,225.1c-1.6,0-3.2-0.3-4.7-0.8c-1.5-0.6-2.9-1.4-4.1-2.6l2.2-2.7c1,0.9,2.1,1.6,3.1,2
			c1,0.5,2.2,0.7,3.6,0.7c1.1,0,2.1-0.2,2.7-0.7c0.7-0.5,1-1.1,1-1.9v-0.1c0-0.4-0.1-0.7-0.2-1c-0.1-0.3-0.4-0.6-0.7-0.8
			c-0.4-0.3-0.8-0.5-1.5-0.7c-0.6-0.2-1.4-0.4-2.4-0.7c-1.1-0.3-2.1-0.6-3-0.9s-1.6-0.7-2.2-1.2c-0.6-0.5-1-1.1-1.4-1.7
			c-0.3-0.7-0.5-1.5-0.5-2.5v-0.1c0-0.9,0.2-1.7,0.5-2.5c0.4-0.8,0.9-1.4,1.5-1.9c0.6-0.5,1.4-1,2.3-1.3c0.9-0.3,1.8-0.5,2.9-0.5
			c1.6,0,2.9,0.2,4.2,0.7c1.2,0.5,2.4,1.1,3.5,2l-2,2.8c-1-0.7-1.9-1.2-2.9-1.6c-0.9-0.4-1.9-0.6-2.9-0.6c-1.1,0-1.9,0.2-2.5,0.7
			c-0.6,0.5-0.9,1.1-0.9,1.8v0.1c0,0.4,0.1,0.8,0.2,1.1c0.1,0.3,0.4,0.6,0.8,0.8c0.4,0.3,0.9,0.5,1.5,0.7c0.7,0.2,1.5,0.5,2.5,0.7
			c1.1,0.3,2.1,0.6,3,0.9c0.9,0.3,1.6,0.8,2.1,1.3c0.6,0.5,1,1.1,1.3,1.7c0.3,0.7,0.4,1.4,0.4,2.3v0.1c0,1-0.2,1.9-0.6,2.7
			c-0.4,0.8-0.9,1.5-1.5,2c-0.7,0.5-1.5,1-2.4,1.2C1435.2,225,1434.1,225.1,1433,225.1z"/>
		<path class="st2" d="M1462.8,225.2c-1.4,0-2.6-0.2-3.7-0.6c-1.1-0.4-2.1-1-2.8-1.8c-0.8-0.8-1.4-1.8-1.8-2.9
			c-0.4-1.2-0.6-2.5-0.6-4v-12.2h3.7v12.1c0,2,0.5,3.5,1.4,4.5c1,1,2.3,1.5,3.9,1.5c1.7,0,3-0.5,3.9-1.5c1-1,1.4-2.5,1.4-4.4v-12.2
			h3.7v12c0,1.6-0.2,3-0.7,4.1c-0.4,1.2-1,2.2-1.8,3c-0.8,0.8-1.7,1.4-2.9,1.8C1465.4,225,1464.1,225.2,1462.8,225.2z"/>
		<path class="st2" d="M1493.6,203.5h3.4l9.3,21.3h-3.9l-2.1-5.1h-10l-2.2,5.1h-3.8L1493.6,203.5z M1498.9,216.4l-3.7-8.5l-3.6,8.5
			H1498.9z"/>
		<path class="st2" d="M1519.1,203.6h3.7v17.8h11.1v3.4h-14.8V203.6z"/>
	</g>
</g>
</svg>
