<?xml version="1.0" encoding="utf-8"?>
<!-- Generator: Adobe Illustrator 19.2.1, SVG Export Plug-In . SVG Version: 6.00 Build 0)  -->
<svg version="1.1" id="SCREEN7" xmlns="http://www.w3.org/2000/svg" xmlns:xlink="http://www.w3.org/1999/xlink" x="0px" y="0px"
	 viewBox="0 0 968.8 105.4" style="enable-background:new 0 0 968.8 105.4;" xml:space="preserve">
<style type="text/css">
	.st0{fill:#9C9C9C;}
	.st1{fill:none;stroke:#9C9C9C;stroke-width:10;stroke-miterlimit:10;}
</style>
<g>
	<g>
		<path class="st0" d="M376.4,44.9c-5,0-10.2-1.2-15.6-3.7v-6.7h0.4c4.5,3.8,9.6,5.7,15.3,5.7c3.5,0,6.3-0.7,8.3-2.2s3-3.3,3-5.7
			c0-1.8-0.4-3.3-1.3-4.3c-0.8-1-2.3-1.9-4.4-2.4l-9.8-2c-3.7-0.8-6.4-2.1-8.3-4.1c-1.9-2-2.8-4.6-2.8-7.8c0-3.6,1.5-6.6,4.4-9
			c2.9-2.4,6.7-3.5,11.5-3.5c4.9,0,9.8,1.1,14.8,3.3v6.4h-0.4c-4.1-3.4-8.8-5.1-14.4-5.1c-3,0-5.5,0.7-7.4,2s-2.8,3.1-2.8,5.3
			c0,3.7,2.1,6,6.4,7.1c2.5,0.4,5.2,1,8.2,1.7s5.2,1.4,6.5,2.1s2.4,1.6,3.2,2.5s1.4,2,1.8,3.2c0.4,1.2,0.6,2.5,0.6,4
			c0,3.8-1.6,7-4.7,9.5S381.6,44.9,376.4,44.9z"/>
		<path class="st0" d="M423,44.9c-6.6,0-11.8-2-15.5-6s-5.6-9.6-5.6-16.8c0-7.1,1.9-12.7,5.7-16.8c3.8-4.1,9-6.1,15.5-6.1
			c4.7,0,9.5,1.3,14.6,4v6.4h-0.4c-4.6-3.8-9.4-5.8-14.5-5.8c-4.6,0-8.3,1.6-11,4.8c-2.7,3.2-4.1,7.7-4.1,13.5
			c0,5.7,1.4,10.2,4.1,13.4c2.8,3.2,6.4,4.8,11,4.8c2.5,0,4.8-0.4,7.1-1.2s4.7-2.3,7.4-4.6h0.4v6.4c-3.8,1.8-6.7,2.9-8.7,3.3
			S424.8,44.9,423,44.9z"/>
		<path class="st0" d="M484.6,44.2h-7.1L463,26.4h-9v17.8h-5.4V0H461c5.9,0,10.1,1.1,12.6,3.3c2.5,2.2,3.8,5.1,3.8,8.7
			c0,6.1-3,10.4-8.9,12.8L484.6,44.2z M454,4.6v17.3h6.4c4,0,6.9-0.8,8.7-2.5s2.6-4,2.6-7.2c0-5.1-3.4-7.6-10.3-7.6H454z"/>
		<path class="st0" d="M521.8,44.2h-28.7V0h28.7v4.7h-23.3v12.9h22.7v4.7h-22.7v17.1h23.3V44.2z"/>
		<path class="st0" d="M562.5,44.2h-28.7V0h28.7v4.7h-23.3v12.9h22.7v4.7h-22.7v17.1h23.3V44.2z"/>
		<path class="st0" d="M608,44.2h-6.3L579.5,5.8v38.3h-5.1V0h7.6l21,36.2V0h5.1V44.2z"/>
	</g>
</g>
<path class="st0" d="M968.1,105.4C783.3,91.6,625.4,84.9,485.4,84.9c-217,0-366.7,10.4-484.5,20.5L0,95.4
	c118-10.2,268-20.6,485.4-20.6c140.2,0,298.4,6.7,483.4,20.6L968.1,105.4z"/>
<path class="st1" d="M968.4,205"/>
</svg>
