<?xml version="1.0" encoding="utf-8"?>
<!-- Generator: Adobe Illustrator 21.1.0, SVG Export Plug-In . SVG Version: 6.00 Build 0)  -->
<svg version="1.1" id="レイヤー_1" xmlns="http://www.w3.org/2000/svg" xmlns:xlink="http://www.w3.org/1999/xlink" x="0px"
	 y="0px" viewBox="0 0 352 48.3" style="enable-background:new 0 0 352 48.3;" xml:space="preserve">
<style type="text/css">
	.st0{fill:#9C9C9C;}
</style>
<g>
	<g>
		<g>
			<path class="st0" d="M122,22.5c-2.5,0-5.1-0.6-7.8-1.8v-3.3h0.2c2.2,1.9,4.8,2.9,7.6,2.9c1.8,0,3.1-0.4,4.1-1.1
				c1-0.7,1.5-1.7,1.5-2.9c0-0.9-0.2-1.6-0.6-2.2c-0.4-0.5-1.2-0.9-2.2-1.2l-4.9-1c-1.8-0.4-3.2-1.1-4.2-2.1c-0.9-1-1.4-2.3-1.4-3.9
				c0-1.8,0.7-3.3,2.2-4.5c1.5-1.2,3.4-1.8,5.7-1.8c2.5,0,4.9,0.5,7.4,1.6v3.2h-0.2c-2-1.7-4.4-2.5-7.2-2.5c-1.5,0-2.8,0.3-3.7,1
				c-0.9,0.7-1.4,1.6-1.4,2.7c0,1.8,1.1,3,3.2,3.5c1.2,0.2,2.6,0.5,4.1,0.8c1.5,0.3,2.6,0.7,3.2,1.1c0.6,0.4,1.2,0.8,1.6,1.3
				c0.4,0.5,0.7,1,0.9,1.6c0.2,0.6,0.3,1.3,0.3,2c0,1.9-0.8,3.5-2.3,4.8C126.6,21.8,124.6,22.5,122,22.5"/>
			<path class="st0" d="M145.3,22.5c-3.3,0-5.9-1-7.8-3c-1.9-2-2.8-4.8-2.8-8.4c0-3.6,0.9-6.4,2.8-8.4c1.9-2,4.5-3.1,7.7-3.1
				c2.3,0,4.8,0.7,7.3,2v3.2h-0.2c-2.3-1.9-4.7-2.9-7.3-2.9c-2.3,0-4.2,0.8-5.5,2.4c-1.4,1.6-2,3.9-2,6.7c0,2.9,0.7,5.1,2.1,6.7
				c1.4,1.6,3.2,2.4,5.5,2.4c1.2,0,2.4-0.2,3.5-0.6c1.1-0.4,2.4-1.2,3.7-2.3h0.2v3.2c-1.9,0.9-3.3,1.4-4.4,1.7
				C147.2,22.4,146.2,22.5,145.3,22.5"/>
			<path class="st0" d="M176.1,22.1h-3.6l-7.3-8.9h-4.5v8.9H158V0h6.3c2.9,0,5,0.6,6.3,1.7s1.9,2.6,1.9,4.4c0,3-1.5,5.2-4.5,6.4
				L176.1,22.1z M160.8,2.3V11h3.2c2,0,3.5-0.4,4.4-1.2c0.9-0.8,1.3-2,1.3-3.6c0-2.5-1.7-3.8-5.2-3.8H160.8z"/>
			<polygon class="st0" points="194.7,22.1 180.3,22.1 180.3,0 194.7,0 194.7,2.4 183.1,2.4 183.1,8.8 194.4,8.8 194.4,11.2 
				183.1,11.2 183.1,19.7 194.7,19.7 			"/>
			<polygon class="st0" points="215,22.1 200.7,22.1 200.7,0 215,0 215,2.4 203.4,2.4 203.4,8.8 214.7,8.8 214.7,11.2 203.4,11.2 
				203.4,19.7 215,19.7 			"/>
			<polygon class="st0" points="237.8,22.1 234.6,22.1 223.5,2.9 223.5,22.1 221,22.1 221,0 224.8,0 235.3,18.1 235.3,0 237.8,0 			
				"/>
		</g>
	</g>
	<g>
		<path class="st0" d="M176,37.4c-58.7,0-117.4,2-176,5.8v5c58.6-3.9,117.3-5.8,176-5.8c58.7,0,117.4,2,176,5.8v-5
			C293.4,39.4,234.7,37.4,176,37.4z"/>
	</g>
</g>
</svg>
