<?xml version="1.0" encoding="utf-8"?>
<!-- Generator: Adobe Illustrator 21.1.0, SVG Export Plug-In . SVG Version: 6.00 Build 0)  -->
<svg version="1.1" id="レイヤー_1" xmlns="http://www.w3.org/2000/svg" xmlns:xlink="http://www.w3.org/1999/xlink" x="0px"
	 y="0px" viewBox="0 0 830 166.2" style="enable-background:new 0 0 830 166.2;" xml:space="preserve">
<style type="text/css">
	.st0{fill:#9C9C9C;}
</style>
<g>
	<g>
		<g>
			<g>
				<g>
					<path class="st0" d="M361.5,22.9c-2.5,0-5.1-0.6-7.8-1.9v-3.4h0.2c2.2,1.9,4.8,2.9,7.6,2.9c1.8,0,3.1-0.4,4.1-1.1
						s1.5-1.6,1.5-2.9c0-0.9-0.2-1.6-0.6-2.1c-0.4-0.5-1.1-1-2.2-1.2l-4.9-1c-1.9-0.4-3.2-1-4.1-2c-1-1-1.4-2.3-1.4-3.9
						c0-1.8,0.8-3.3,2.2-4.5s3.4-1.8,5.8-1.8c2.5,0,4.9,0.6,7.4,1.6v3.2h-0.2c-2-1.7-4.4-2.5-7.2-2.5c-1.5,0-2.8,0.3-3.7,1
						s-1.4,1.5-1.4,2.7c0,1.8,1,3,3.2,3.6c1.2,0.2,2.6,0.5,4.1,0.9s2.6,0.7,3.2,1s1.2,0.8,1.6,1.2c0.4,0.5,0.7,1,0.9,1.6
						c0.2,0.6,0.3,1.2,0.3,2c0,1.9-0.8,3.5-2.4,4.8S364.1,22.9,361.5,22.9z"/>
					<path class="st0" d="M384.8,22.9c-3.3,0-5.9-1-7.8-3s-2.8-4.8-2.8-8.4c0-3.6,1-6.4,2.9-8.4s4.5-3,7.8-3c2.4,0,4.8,0.6,7.3,2
						v3.2H392c-2.3-1.9-4.7-2.9-7.2-2.9c-2.3,0-4.1,0.8-5.5,2.4s-2,3.9-2,6.8c0,2.9,0.7,5.1,2,6.7c1.4,1.6,3.2,2.4,5.5,2.4
						c1.2,0,2.4-0.2,3.5-0.6s2.4-1.1,3.7-2.3h0.2v3.2c-1.9,0.9-3.4,1.5-4.4,1.6S385.7,22.9,384.8,22.9z"/>
					<path class="st0" d="M415.6,22.4h-3.5l-7.2-8.9h-4.5v8.9h-2.7V0.4h6.2c3,0,5,0.6,6.3,1.6s1.9,2.5,1.9,4.3
						c0,3.1-1.5,5.2-4.5,6.4L415.6,22.4z M400.3,2.7v8.6h3.2c2,0,3.5-0.4,4.4-1.2c0.9-0.8,1.3-2,1.3-3.6c0-2.5-1.7-3.8-5.1-3.8
						H400.3z"/>
					<path class="st0" d="M434.2,22.4h-14.4V0.4h14.4v2.3h-11.6v6.5h11.4v2.4h-11.4v8.6h11.6V22.4z"/>
					<path class="st0" d="M454.6,22.4h-14.4V0.4h14.4v2.3h-11.6v6.5h11.4v2.4h-11.4v8.6h11.6V22.4z"/>
					<path class="st0" d="M477.3,22.4h-3.1L463.1,3.3v19.1h-2.5V0.4h3.8l10.5,18.1V0.4h2.5L477.3,22.4L477.3,22.4z"/>
				</g>
			</g>
			<g>
				<g>
					<g>
						<g>
							<g>
								<g>
									<path class="st0" d="M358.5,82.2V55.5h-15.4l-22.9,26.7h5.9l-2.8,3.2v9.6h29.3v8.5h11V82.2H358.5z M352.6,85.3h-17.4
										l2.8-3.2h-5.1l14.5-16.7v16.7h5.1L352.6,85.3L352.6,85.3z"/>
									<path class="st0" d="M414.4,74.9h-6c-0.2-10.8-9.2-19.4-20.4-19.4h-18.5v19.4h6V95H394c11.2,0,20.4-8.8,20.4-19.7
										C414.4,75.1,414.4,75,414.4,74.9z M394.9,85.4h-7.9V74.9h-6V65h7.9c4.4,0,7.9,4.4,8,9.9h6c0,0.1,0,0.2,0,0.2
										C402.9,80.8,399.3,85.4,394.9,85.4z"/>
									<g>
										<polygon class="st0" points="421.9,83.7 419.3,86.3 465,86.3 462.4,83.7 										"/>
									</g>
									<g>
										<polygon class="st0" points="434.2,74.9 427.3,82.2 466.2,82.2 459.3,74.9 										"/>
									</g>
									<g>
										<polygon class="st0" points="433.1,68.6 437.6,73.3 466,73.3 470.5,68.6 										"/>
									</g>
									<g>
										<polygon class="st0" points="421,67 441.1,67 430.1,55.6 410,55.6 										"/>
										<polygon class="st0" points="441.7,67 460,67 471.1,55.6 452.7,55.6 										"/>
									</g>
									<g>
										<polygon class="st0" points="417.5,54 437.7,54 430.2,46.2 410,46.2 										"/>
										<polygon class="st0" points="473.7,38.4 458.8,54 479,54 493.9,38.4 										"/>
									</g>
									<g>
										<polygon class="st0" points="472.7,88 452.6,88 459.2,95 479.4,95 										"/>
										<polygon class="st0" points="401.2,112.4 422.2,112.4 437.8,96.2 416.7,96.2 										"/>
										<polygon class="st0" points="450.8,88 429.6,88 422.8,95 444,95 										"/>
										<polygon class="st0" points="461.9,103.5 482,103.5 475.1,96.2 455,96.2 										"/>
									</g>
								</g>
							</g>
						</g>
					</g>
				</g>
				<g>
					<path class="st0" d="M497,42.7c0.4-0.8,0.9-1.6,1.5-2.2c0.7-0.7,1.4-1.2,2.3-1.5c0.8-0.3,1.8-0.5,2.8-0.5c1,0,1.9,0.2,2.8,0.5
						c0.8,0.3,1.6,0.8,2.2,1.5s1.2,1.4,1.5,2.2c0.4,0.8,0.5,1.8,0.5,2.8c0,1-0.2,2-0.5,2.8c-0.4,0.8-0.9,1.7-1.5,2.2
						c-0.7,0.7-1.4,1.2-2.2,1.5s-1.8,0.5-2.8,0.5s-1.9-0.2-2.8-0.5s-1.7-0.8-2.3-1.5c-0.7-0.7-1.2-1.4-1.5-2.2
						c-0.3-0.9-0.5-1.8-0.5-2.8C496.5,44.5,496.7,43.5,497,42.7z M498.2,47.9c0.3,0.8,0.7,1.4,1.2,2s1.2,1,1.8,1.3
						c0.7,0.3,1.5,0.5,2.3,0.5c0.8,0,1.6-0.2,2.3-0.5s1.3-0.8,1.8-1.3c0.5-0.5,1-1.2,1.2-2s0.5-1.5,0.5-2.5c0-0.8-0.2-1.7-0.5-2.4
						s-0.7-1.4-1.2-1.9c-0.5-0.5-1.2-1-1.8-1.3c-0.7-0.3-1.5-0.5-2.3-0.5c-0.8,0-1.6,0.2-2.3,0.5s-1.3,0.8-1.8,1.3
						c-0.5,0.5-1,1.2-1.2,1.9c-0.3,0.8-0.5,1.5-0.5,2.4S498,47.2,498.2,47.9z M504.1,41.3c1,0,1.7,0.2,2.2,0.6
						c0.5,0.4,0.7,1,0.7,1.8c0,0.8-0.2,1.3-0.7,1.7c-0.4,0.3-1,0.5-1.5,0.6l2.4,3.7h-1.4l-2.2-3.6h-1.4v3.6h-1.3v-8.3H504.1z
						 M503.5,45c0.3,0,0.5,0,0.8,0c0.2,0,0.5,0,0.7-0.2c0.2-0.1,0.3-0.2,0.5-0.4c0.1-0.2,0.2-0.5,0.2-0.8c0-0.3,0-0.5-0.2-0.7
						c-0.1-0.2-0.2-0.3-0.5-0.4c-0.2-0.1-0.3-0.2-0.6-0.2c-0.2,0-0.5,0-0.7,0h-1.7v2.7L503.5,45L503.5,45z"/>
				</g>
			</g>
		</g>
	</g>
	<g>
		<path class="st0" d="M415,129.8c-138.9,0-278.5,10.5-415,31.3v5.1c136.4-20.8,276-31.4,415-31.4c139,0,278.6,10.6,415,31.4v-5.1
			C693.5,140.3,553.9,129.8,415,129.8z"/>
	</g>
</g>
</svg>
