<?xml version="1.0" encoding="utf-8"?>
<!-- Generator: Adobe Illustrator 21.1.0, SVG Export Plug-In . SVG Version: 6.00 Build 0)  -->
<svg version="1.1" id="レイヤー_1" xmlns="http://www.w3.org/2000/svg" xmlns:xlink="http://www.w3.org/1999/xlink" x="0px"
	 y="0px" viewBox="0 0 760 70.2" style="enable-background:new 0 0 760 70.2;" xml:space="preserve">
<style type="text/css">
	.st0{fill:#9C9C9C;}
</style>
<g>
	<g>
		<path class="st0" d="M326,22.9c-2.5,0-5.1-0.6-7.8-1.8v-3.3h0.2c2.2,1.9,4.8,2.9,7.6,2.9c1.8,0,3.1-0.4,4.1-1.1
			c1-0.7,1.5-1.7,1.5-2.9c0-0.9-0.2-1.6-0.6-2.2c-0.4-0.5-1.2-0.9-2.2-1.2l-4.9-1c-1.8-0.4-3.2-1.1-4.2-2.1c-0.9-1-1.4-2.3-1.4-3.9
			c0-1.8,0.7-3.3,2.2-4.5c1.5-1.2,3.4-1.8,5.7-1.8c2.5,0,4.9,0.5,7.4,1.6v3.2h-0.2c-2-1.7-4.4-2.5-7.2-2.5c-1.5,0-2.8,0.3-3.7,1
			c-0.9,0.7-1.4,1.6-1.4,2.7c0,1.8,1.1,3,3.2,3.5c1.2,0.2,2.6,0.5,4.1,0.8c1.5,0.3,2.6,0.7,3.2,1.1c0.6,0.4,1.2,0.8,1.6,1.3
			c0.4,0.5,0.7,1,0.9,1.6c0.2,0.6,0.3,1.3,0.3,2c0,1.9-0.8,3.5-2.3,4.8C330.6,22.2,328.6,22.9,326,22.9"/>
		<path class="st0" d="M349.3,22.9c-3.3,0-5.9-1-7.8-3c-1.9-2-2.8-4.8-2.8-8.4c0-3.6,0.9-6.4,2.8-8.4c1.9-2,4.5-3.1,7.7-3.1
			c2.3,0,4.8,0.7,7.3,2v3.2h-0.2c-2.3-1.9-4.7-2.9-7.3-2.9c-2.3,0-4.2,0.8-5.5,2.4c-1.4,1.6-2,3.9-2,6.7c0,2.9,0.7,5.1,2.1,6.7
			c1.4,1.6,3.2,2.4,5.5,2.4c1.2,0,2.4-0.2,3.5-0.6c1.1-0.4,2.4-1.2,3.7-2.3h0.2v3.2c-1.9,0.9-3.3,1.4-4.4,1.7
			C351.2,22.8,350.2,22.9,349.3,22.9"/>
		<path class="st0" d="M380.1,22.5h-3.6l-7.3-8.9h-4.5v8.9H362V0.4h6.3c2.9,0,5,0.6,6.3,1.7s1.9,2.6,1.9,4.4c0,3-1.5,5.2-4.5,6.4
			L380.1,22.5z M364.8,2.7v8.6h3.2c2,0,3.5-0.4,4.4-1.2c0.9-0.8,1.3-2,1.3-3.6c0-2.5-1.7-3.8-5.2-3.8H364.8z"/>
		<polygon class="st0" points="398.7,22.5 384.3,22.5 384.3,0.4 398.7,0.4 398.7,2.8 387,2.8 387,9.2 398.4,9.2 398.4,11.6 
			387,11.6 387,20.1 398.7,20.1 		"/>
		<polygon class="st0" points="419,22.5 404.7,22.5 404.7,0.4 419,0.4 419,2.8 407.4,2.8 407.4,9.2 418.7,9.2 418.7,11.6 
			407.4,11.6 407.4,20.1 419,20.1 		"/>
		<polygon class="st0" points="441.8,22.5 438.6,22.5 427.5,3.3 427.5,22.5 425,22.5 425,0.4 428.8,0.4 439.3,18.5 439.3,0.4 
			441.8,0.4 		"/>
	</g>
	<g>
		<path class="st0" d="M380,37.8C252.8,37.8,125.3,47,0,65.1v5.1C125.3,52,252.8,42.8,380,42.8c127.2,0,254.7,9.2,380,27.3v-5.1
			C634.7,47,507.2,37.8,380,37.8z"/>
	</g>
</g>
</svg>
