<?xml version="1.0" encoding="utf-8"?>
<!-- Generator: Adobe Illustrator 21.1.0, SVG Export Plug-In . SVG Version: 6.00 Build 0)  -->
<svg version="1.1" id="レイヤー_1" xmlns="http://www.w3.org/2000/svg" xmlns:xlink="http://www.w3.org/1999/xlink" x="0px"
	 y="0px" viewBox="0 0 804 73.5" style="enable-background:new 0 0 804 73.5;" xml:space="preserve">
<style type="text/css">
	.st0{fill:#9C9C9C;}
</style>
<g>
	<g>
		<path class="st0" d="M348,22.9c-2.5,0-5.1-0.6-7.8-1.8v-3.3h0.2c2.2,1.9,4.8,2.9,7.6,2.9c1.8,0,3.1-0.4,4.1-1.1
			c1-0.7,1.5-1.7,1.5-2.9c0-0.9-0.2-1.6-0.6-2.2c-0.4-0.5-1.2-0.9-2.2-1.2l-4.9-1c-1.8-0.4-3.2-1.1-4.2-2.1c-0.9-1-1.4-2.3-1.4-3.9
			c0-1.8,0.7-3.3,2.2-4.5c1.5-1.2,3.4-1.8,5.7-1.8c2.5,0,4.9,0.5,7.4,1.6v3.2h-0.2c-2-1.7-4.4-2.5-7.2-2.5c-1.5,0-2.8,0.3-3.7,1
			c-0.9,0.7-1.4,1.6-1.4,2.7c0,1.8,1.1,3,3.2,3.5c1.2,0.2,2.6,0.5,4.1,0.8c1.5,0.3,2.6,0.7,3.2,1.1c0.6,0.4,1.2,0.8,1.6,1.3
			c0.4,0.5,0.7,1,0.9,1.6c0.2,0.6,0.3,1.3,0.3,2c0,1.9-0.8,3.5-2.3,4.8C352.6,22.2,350.6,22.9,348,22.9"/>
		<path class="st0" d="M371.3,22.9c-3.3,0-5.9-1-7.8-3c-1.9-2-2.8-4.8-2.8-8.4c0-3.6,0.9-6.4,2.8-8.4c1.9-2,4.5-3.1,7.7-3.1
			c2.3,0,4.8,0.7,7.3,2v3.2h-0.2c-2.3-1.9-4.7-2.9-7.3-2.9c-2.3,0-4.2,0.8-5.5,2.4c-1.4,1.6-2,3.9-2,6.7c0,2.9,0.7,5.1,2.1,6.7
			c1.4,1.6,3.2,2.4,5.5,2.4c1.2,0,2.4-0.2,3.5-0.6c1.1-0.4,2.4-1.2,3.7-2.3h0.2v3.2c-1.9,0.9-3.3,1.4-4.4,1.7
			C373.2,22.8,372.2,22.9,371.3,22.9"/>
		<path class="st0" d="M402.1,22.5h-3.6l-7.3-8.9h-4.5v8.9H384V0.4h6.3c2.9,0,5,0.6,6.3,1.7c1.3,1.1,1.9,2.6,1.9,4.4
			c0,3-1.5,5.2-4.5,6.4L402.1,22.5z M386.8,2.7v8.6h3.2c2,0,3.5-0.4,4.4-1.2c0.9-0.8,1.3-2,1.3-3.6c0-2.5-1.7-3.8-5.2-3.8H386.8z"/>
		<polygon class="st0" points="420.7,22.5 406.3,22.5 406.3,0.4 420.7,0.4 420.7,2.8 409,2.8 409,9.2 420.4,9.2 420.4,11.6 
			409,11.6 409,20.1 420.7,20.1 		"/>
		<polygon class="st0" points="441,22.5 426.7,22.5 426.7,0.4 441,0.4 441,2.8 429.4,2.8 429.4,9.2 440.7,9.2 440.7,11.6 
			429.4,11.6 429.4,20.1 441,20.1 		"/>
		<polygon class="st0" points="463.8,22.5 460.6,22.5 449.5,3.3 449.5,22.5 447,22.5 447,0.4 450.8,0.4 461.3,18.5 461.3,0.4 
			463.8,0.4 		"/>
	</g>
	<g>
		<path class="st0" d="M402,37.8c-134.7,0-269.7,10.3-402,30.6v5.1c132.3-20.3,267.3-30.6,402-30.6c134.7,0,269.7,10.3,402,30.6
			v-5.1C671.7,48.1,536.7,37.8,402,37.8z"/>
	</g>
</g>
</svg>
