<?xml version="1.0" encoding="utf-8"?>
<!-- Generator: Adobe Illustrator 21.1.0, SVG Export Plug-In . SVG Version: 6.00 Build 0)  -->
<svg version="1.1" id="レイヤー_1" xmlns="http://www.w3.org/2000/svg" xmlns:xlink="http://www.w3.org/1999/xlink" x="0px"
	 y="0px" viewBox="0 0 584 58.9" style="enable-background:new 0 0 584 58.9;" xml:space="preserve">
<style type="text/css">
	.st0{fill:#9C9C9C;}
</style>
<g>
	<g>
		<path class="st0" d="M238,22.9c-2.5,0-5.1-0.6-7.8-1.8v-3.3h0.2c2.2,1.9,4.8,2.9,7.6,2.9c1.8,0,3.1-0.4,4.1-1.1
			c1-0.7,1.5-1.7,1.5-2.9c0-0.9-0.2-1.6-0.6-2.2c-0.4-0.5-1.2-0.9-2.2-1.2l-4.9-1c-1.8-0.4-3.2-1.1-4.2-2.1c-0.9-1-1.4-2.3-1.4-3.9
			c0-1.8,0.7-3.3,2.2-4.5c1.5-1.2,3.4-1.8,5.7-1.8c2.5,0,4.9,0.5,7.4,1.6v3.2h-0.2c-2-1.7-4.4-2.5-7.2-2.5c-1.5,0-2.8,0.3-3.7,1
			c-0.9,0.7-1.4,1.6-1.4,2.7c0,1.8,1.1,3,3.2,3.5c1.2,0.2,2.6,0.5,4.1,0.8c1.5,0.3,2.6,0.7,3.2,1.1c0.6,0.4,1.2,0.8,1.6,1.3
			c0.4,0.5,0.7,1,0.9,1.6c0.2,0.6,0.3,1.3,0.3,2c0,1.9-0.8,3.5-2.3,4.8C242.6,22.2,240.6,22.9,238,22.9"/>
		<path class="st0" d="M261.3,22.9c-3.3,0-5.9-1-7.8-3c-1.9-2-2.8-4.8-2.8-8.4c0-3.6,0.9-6.4,2.8-8.4c1.9-2,4.5-3.1,7.7-3.1
			c2.3,0,4.8,0.7,7.3,2v3.2h-0.2c-2.3-1.9-4.7-2.9-7.3-2.9c-2.3,0-4.2,0.8-5.5,2.4c-1.4,1.6-2,3.9-2,6.7c0,2.9,0.7,5.1,2.1,6.7
			c1.4,1.6,3.2,2.4,5.5,2.4c1.2,0,2.4-0.2,3.5-0.6c1.1-0.4,2.4-1.2,3.7-2.3h0.2v3.2c-1.9,0.9-3.3,1.4-4.4,1.7
			C263.2,22.8,262.2,22.9,261.3,22.9"/>
		<path class="st0" d="M292.1,22.5h-3.6l-7.3-8.9h-4.5v8.9H274V0.4h6.3c2.9,0,5,0.6,6.3,1.7s1.9,2.6,1.9,4.4c0,3-1.5,5.2-4.5,6.4
			L292.1,22.5z M276.8,2.7v8.6h3.2c2,0,3.5-0.4,4.4-1.2c0.9-0.8,1.3-2,1.3-3.6c0-2.5-1.7-3.8-5.2-3.8H276.8z"/>
		<polygon class="st0" points="310.7,22.5 296.3,22.5 296.3,0.4 310.7,0.4 310.7,2.8 299.1,2.8 299.1,9.2 310.4,9.2 310.4,11.6 
			299.1,11.6 299.1,20.1 310.7,20.1 		"/>
		<polygon class="st0" points="331,22.5 316.7,22.5 316.7,0.4 331,0.4 331,2.8 319.4,2.8 319.4,9.2 330.7,9.2 330.7,11.6 
			319.4,11.6 319.4,20.1 331,20.1 		"/>
		<polygon class="st0" points="353.8,22.5 350.6,22.5 339.5,3.3 339.5,22.5 337,22.5 337,0.4 340.8,0.4 351.3,18.5 351.3,0.4 
			353.8,0.4 		"/>
	</g>
	<g>
		<path class="st0" d="M292,37.8c-97.5,0-195.2,5.4-292,16.1v5c96.7-10.7,194.5-16.1,292-16.1c97.5,0,195.3,5.4,292,16.1v-5
			C487.2,43.2,389.5,37.8,292,37.8z"/>
	</g>
</g>
</svg>
