<?xml version="1.0" encoding="utf-8"?>
<!-- Generator: Adobe Illustrator 21.1.0, SVG Export Plug-In . SVG Version: 6.00 Build 0)  -->
<svg version="1.1" id="レイヤー_1" xmlns="http://www.w3.org/2000/svg" xmlns:xlink="http://www.w3.org/1999/xlink" x="0px"
	 y="0px" viewBox="0 0 402 50.5" style="enable-background:new 0 0 402 50.5;" xml:space="preserve">
<style type="text/css">
	.st0{fill:#9C9C9C;}
</style>
<g>
	<g>
		<g>
			<path class="st0" d="M147,22.9c-2.5,0-5.1-0.6-7.8-1.8v-3.3h0.2c2.2,1.9,4.8,2.9,7.6,2.9c1.8,0,3.1-0.4,4.1-1.1
				c1-0.7,1.5-1.7,1.5-2.9c0-0.9-0.2-1.6-0.6-2.2c-0.4-0.5-1.2-0.9-2.2-1.2l-4.9-1c-1.8-0.4-3.2-1.1-4.2-2.1c-0.9-1-1.4-2.3-1.4-3.9
				c0-1.8,0.7-3.3,2.2-4.5c1.5-1.2,3.4-1.8,5.7-1.8c2.5,0,4.9,0.5,7.4,1.6v3.2h-0.2c-2-1.7-4.4-2.5-7.2-2.5c-1.5,0-2.8,0.3-3.7,1
				c-0.9,0.7-1.4,1.6-1.4,2.7c0,1.8,1.1,3,3.2,3.5c1.2,0.2,2.6,0.5,4.1,0.8c1.5,0.3,2.6,0.7,3.2,1.1c0.6,0.4,1.2,0.8,1.6,1.3
				c0.4,0.5,0.7,1,0.9,1.6c0.2,0.6,0.3,1.3,0.3,2c0,1.9-0.8,3.5-2.3,4.8C151.6,22.2,149.6,22.9,147,22.9"/>
			<path class="st0" d="M170.3,22.9c-3.3,0-5.9-1-7.8-3c-1.9-2-2.8-4.8-2.8-8.4c0-3.6,0.9-6.4,2.8-8.4c1.9-2,4.5-3.1,7.7-3.1
				c2.3,0,4.8,0.7,7.3,2v3.2h-0.2c-2.3-1.9-4.7-2.9-7.3-2.9c-2.3,0-4.2,0.8-5.5,2.4c-1.4,1.6-2,3.9-2,6.7c0,2.9,0.7,5.1,2.1,6.7
				c1.4,1.6,3.2,2.4,5.5,2.4c1.2,0,2.4-0.2,3.5-0.6c1.1-0.4,2.4-1.2,3.7-2.3h0.2v3.2c-1.9,0.9-3.3,1.4-4.4,1.7
				C172.2,22.8,171.2,22.9,170.3,22.9"/>
			<path class="st0" d="M201.1,22.5h-3.6l-7.3-8.9h-4.5v8.9H183V0.4h6.3c2.9,0,5,0.6,6.3,1.7s1.9,2.6,1.9,4.4c0,3-1.5,5.2-4.5,6.4
				L201.1,22.5z M185.8,2.7v8.6h3.2c2,0,3.5-0.4,4.4-1.2c0.9-0.8,1.3-2,1.3-3.6c0-2.5-1.7-3.8-5.2-3.8H185.8z"/>
			<polygon class="st0" points="219.7,22.5 205.3,22.5 205.3,0.4 219.7,0.4 219.7,2.8 208.1,2.8 208.1,9.2 219.4,9.2 219.4,11.6 
				208.1,11.6 208.1,20.1 219.7,20.1 			"/>
			<polygon class="st0" points="240,22.5 225.7,22.5 225.7,0.4 240,0.4 240,2.8 228.4,2.8 228.4,9.2 239.7,9.2 239.7,11.6 
				228.4,11.6 228.4,20.1 240,20.1 			"/>
			<polygon class="st0" points="262.8,22.5 259.6,22.5 248.5,3.3 248.5,22.5 246,22.5 246,0.4 249.8,0.4 260.3,18.5 260.3,0.4 
				262.8,0.4 			"/>
		</g>
	</g>
	<g>
		<path class="st0" d="M201,37.8c-67,0-134.2,2.5-201,7.6v5c66.8-5.1,134-7.6,201-7.6c67,0,134.2,2.6,201,7.6v-5
			C335.2,40.4,268,37.8,201,37.8z"/>
	</g>
</g>
</svg>
