<?xml version="1.0" encoding="utf-8"?>
<!-- Generator: Adobe Illustrator 21.1.0, SVG Export Plug-In . SVG Version: 6.00 Build 0)  -->
<svg version="1.1" id="レイヤー_22" xmlns="http://www.w3.org/2000/svg" xmlns:xlink="http://www.w3.org/1999/xlink" x="0px"
	 y="0px" viewBox="0 0 182.4 69" style="enable-background:new 0 0 182.4 69;" xml:space="preserve">
<style type="text/css">
	.st0{fill:#3E3A39;}
</style>
<path class="st0" d="M179.1,69H3.3C1.5,69,0,67.5,0,65.7V3.3C0,1.5,1.5,0,3.3,0h175.7c1.8,0,3.3,1.5,3.3,3.3v62.4
	C182.4,67.5,180.9,69,179.1,69z M3.3,1C2,1,1,2,1,3.3v62.4C1,67,2,68,3.3,68h175.7c1.3,0,2.3-1,2.3-2.3V3.3c0-1.3-1-2.3-2.3-2.3H3.3
	z"/>
<g>
	<rect x="0.5" y="34" class="st0" width="0.5" height="1"/>
	<path class="st0" d="M177.4,35h-1v-1h1V35z M172.3,35h-1v-1h1V35z M167.3,35h-1v-1h1V35z M162.3,35h-1v-1h1V35z M157.2,35h-1v-1h1
		V35z M152.2,35h-1v-1h1V35z M147.1,35h-1v-1h1V35z M142.1,35h-1v-1h1V35z M137.1,35h-1v-1h1V35z M132,35h-1v-1h1V35z M127,35h-1v-1
		h1V35z M122,35h-1v-1h1V35z M116.9,35h-1v-1h1V35z M111.9,35h-1v-1h1V35z M106.8,35h-1v-1h1V35z M101.8,35h-1v-1h1V35z M96.8,35h-1
		v-1h1V35z M91.7,35h-1v-1h1V35z M86.7,35h-1v-1h1V35z M81.6,35h-1v-1h1V35z M76.6,35h-1v-1h1V35z M71.6,35h-1v-1h1V35z M66.5,35h-1
		v-1h1V35z M61.5,35h-1v-1h1V35z M56.4,35h-1v-1h1V35z M51.4,35h-1v-1h1V35z M46.4,35h-1v-1h1V35z M41.3,35h-1v-1h1V35z M36.3,35h-1
		v-1h1V35z M31.2,35h-1v-1h1V35z M26.2,35h-1v-1h1V35z M21.2,35h-1v-1h1V35z M16.1,35h-1v-1h1V35z M11.1,35h-1v-1h1V35z M6,35H5v-1
		h1V35z"/>
	<rect x="181.4" y="34" class="st0" width="0.5" height="1"/>
</g>
</svg>
