<?xml version="1.0" encoding="utf-8"?>
<!-- Generator: Adobe Illustrator 21.1.0, SVG Export Plug-In . SVG Version: 6.00 Build 0)  -->
<svg version="1.1" id="支払い区分" xmlns="http://www.w3.org/2000/svg" xmlns:xlink="http://www.w3.org/1999/xlink" x="0px"
	 y="0px" viewBox="0 0 37.1 26.2" style="enable-background:new 0 0 37.1 26.2;" xml:space="preserve">
<style type="text/css">
	.st0{fill:#FFFFFF;}
	.st1{font-family:'ShinGoPro-Light-83pv-RKSJ-H';}
	.st2{font-size:14.9775px;}
</style>
<g>
	<g>
		<path class="st0" d="M35.1,2v13h-0.6c-0.7,0-1.3,0.3-1.7,0.9s-0.4,1.3-0.2,1.9l2.5,5.8v0.7H2V2H35.1 M35.3,0H1.7
			C0.8,0,0,0.8,0,1.7v22.8c0,0.9,0.8,1.7,1.7,1.7h33.6c0.9,0,1.7-0.8,1.7-1.7v-1.4L34.4,17h2.6V1.7C37.1,0.8,36.3,0,35.3,0L35.3,0z"
			/>
	</g>
	<text transform="matrix(1.0015 0 0 1 12.3282 19.5909)" class="st0 st1 st2">¥</text>
</g>
</svg>
