<?xml version="1.0" encoding="utf-8"?>
<!-- Generator: Adobe Illustrator 21.1.0, SVG Export Plug-In . SVG Version: 6.00 Build 0)  -->
<svg version="1.1" id="座席選択" xmlns="http://www.w3.org/2000/svg" xmlns:xlink="http://www.w3.org/1999/xlink" x="0px"
	 y="0px" viewBox="0 0 22 22" style="enable-background:new 0 0 22 22;" xml:space="preserve">
<style type="text/css">
	.st0{opacity:0.9;fill:none;stroke:#FFFFFF;stroke-miterlimit:10;enable-background:new    ;}
	.st1{fill:none;stroke:#FFFFFF;stroke-miterlimit:10;}
</style>
<g>
	<circle class="st0" cx="11" cy="11.1" r="5"/>
	<path class="st1" d="M21.4,13.8V8.2h-2.1c-0.4-1.1-1-2.1-1.7-3l1.1-1.8l-4.8-2.8l-1.1,1.8c-0.6-0.1-1.2-0.2-1.7-0.2
		S9.8,2.4,9.3,2.5L8.2,0.6L3.4,3.4l1.1,1.8c-0.8,0.9-1.3,1.9-1.7,3H0.6v5.6h2.1c0.4,1.1,1,2.1,1.7,3l-1.1,1.8l4.8,2.8l1.1-1.8
		c0.6,0.1,1.2,0.2,1.7,0.2s1.2-0.1,1.7-0.2l1.1,1.8l4.8-2.8l-1.1-1.8c0.8-0.9,1.3-1.9,1.7-3H21.4z"/>
</g>
</svg>
