<?xml version="1.0" encoding="utf-8"?>
<!-- Generator: Adobe Illustrator 21.1.0, SVG Export Plug-In . SVG Version: 6.00 Build 0)  -->
<svg version="1.1" id="_x32__x28_丸の内1_x29_" xmlns="http://www.w3.org/2000/svg" xmlns:xlink="http://www.w3.org/1999/xlink"
	 x="0px" y="0px" viewBox="0 0 28 17.1" style="enable-background:new 0 0 28 17.1;" xml:space="preserve">
<style type="text/css">
	.st0{fill:#3E3A39;}
</style>
<g>
	<path class="st0" d="M11.5,17.1H0c0-1.4,0.4-2.6,1-3.6c0.7-1,1.6-1.9,2.7-2.7c0.5-0.4,1.1-0.8,1.7-1.2C6,9.2,6.5,8.8,7,8.4
		C7.5,8,7.9,7.5,8.3,7c0.3-0.5,0.5-1.1,0.5-1.7c0-0.3,0-0.6-0.1-1c-0.1-0.3-0.2-0.7-0.4-1S7.7,2.8,7.4,2.6S6.5,2.3,5.9,2.3
		c-0.5,0-1,0.1-1.4,0.3C4.2,2.8,3.9,3.1,3.7,3.5C3.5,3.9,3.3,4.3,3.2,4.8C3.1,5.3,3.1,5.9,3,6.5H0.3c0-0.9,0.1-1.8,0.4-2.6
		s0.6-1.5,1.1-2.1c0.5-0.6,1.1-1,1.8-1.4S5.2,0,6.1,0c1,0,1.9,0.2,2.6,0.5c0.7,0.3,1.2,0.8,1.7,1.3c0.4,0.5,0.7,1.1,0.9,1.7
		c0.2,0.6,0.3,1.2,0.3,1.7c0,0.7-0.1,1.3-0.3,1.8c-0.2,0.5-0.5,1-0.8,1.5C10,8.9,9.6,9.4,9.1,9.7c-0.4,0.4-0.9,0.7-1.4,1.1
		c-0.5,0.3-1,0.7-1.4,1c-0.5,0.3-0.9,0.6-1.3,0.9c-0.4,0.3-0.8,0.6-1.1,0.9c-0.3,0.3-0.5,0.7-0.6,1h8.2V17.1z"/>
	<path class="st0" d="M16.2,0H28v2.6h-8.8v4.5h7.8v2.4h-7.8v7.6h-3V0z"/>
</g>
</svg>
